<svg width="738" height="632" viewBox="0 0 738 632" fill="none" xmlns="http://www.w3.org/2000/svg">
<path opacity="0.01" fill-rule="evenodd" clip-rule="evenodd" d="M495.465 311.514C505.575 373.313 556.771 445.359 516.897 493.554C478.221 540.3 400.287 492.254 340.281 499.082C284.524 505.427 233.111 547.871 179.317 531.969C121.881 514.989 74.9389 467.954 49.9001 413.239C25.3504 359.593 26.8125 296.263 45.8431 240.301C63.0418 189.726 109.945 159.524 148.64 122.878C185.886 87.6048 216.002 31.9565 267.077 30.7841C318.245 29.6094 350.094 84.591 389.524 117.348C419.222 142.02 450.039 164.205 468.577 198.183C487.61 233.065 489.037 272.224 495.465 311.514Z" stroke="url(#paint0_linear_106_25674)" stroke-width="3"/>
<path opacity="0.02" fill-rule="evenodd" clip-rule="evenodd" d="M498.163 309.778C509.313 371.186 561.586 442.089 522.689 490.809C484.96 538.065 406.458 491.541 346.778 499.389C291.324 506.681 240.827 549.871 186.942 534.959C129.408 519.038 81.8102 472.983 55.9057 418.895C30.5072 365.863 30.8622 302.73 48.8534 246.632C65.1127 195.934 111.329 165.022 149.253 127.832C185.756 92.0343 214.8 36.057 265.678 34.0005C316.649 31.9403 349.345 86.1759 389.209 118.133C419.233 142.202 450.33 163.774 469.396 197.31C488.97 231.74 491.074 270.737 498.163 309.778Z" stroke="url(#paint1_linear_106_25674)" stroke-width="3"/>
<path opacity="0.03" fill-rule="evenodd" clip-rule="evenodd" d="M500.802 308.005C512.982 369.004 566.308 438.75 528.392 487.975C491.616 535.721 412.577 490.725 353.24 499.583C298.105 507.814 248.535 551.731 194.576 537.808C136.965 522.943 88.73 477.877 61.974 424.429C35.7407 372.025 34.9959 309.107 51.9486 252.893C67.2695 202.09 112.788 170.483 149.933 132.764C185.688 96.4571 213.656 40.1711 264.323 37.2372C315.082 34.2979 348.608 87.7748 388.891 118.927C419.23 142.389 450.594 163.345 470.177 196.432C490.283 230.401 493.058 269.224 500.802 308.005Z" stroke="url(#paint2_linear_106_25674)" stroke-width="3"/>
<path opacity="0.04" fill-rule="evenodd" clip-rule="evenodd" d="M503.381 306.197C516.58 366.769 570.934 435.342 534.007 485.053C498.189 533.271 418.642 489.808 359.665 499.666C304.864 508.827 256.23 553.451 202.217 540.516C144.547 526.705 95.6954 482.637 68.1023 429.842C41.0483 378.078 39.2114 315.394 55.1272 259.083C69.5109 208.193 114.321 175.906 150.681 137.673C185.68 100.872 212.572 44.2978 263.012 40.4932C313.543 36.6816 347.884 89.3874 388.568 119.729C419.21 142.581 450.83 162.918 470.921 195.548C491.548 229.048 494.989 267.687 503.381 306.197Z" stroke="url(#paint3_linear_106_25674)" stroke-width="3"/>
<path opacity="0.05" fill-rule="evenodd" clip-rule="evenodd" d="M505.899 304.354C520.106 364.482 575.464 431.868 539.531 482.046C504.677 530.716 424.65 488.79 366.05 499.64C311.599 509.721 263.911 555.033 209.861 543.083C152.152 530.323 102.704 487.26 74.2882 435.131C46.4278 384.021 43.5067 321.59 58.3873 265.201C71.8356 214.24 115.928 181.288 151.496 142.558C185.733 105.278 211.547 48.4361 261.745 43.7678C312.034 39.091 347.172 91.0136 388.243 120.541C419.175 142.78 451.039 162.495 471.628 194.66C492.765 227.683 496.867 266.126 505.899 304.354Z" stroke="url(#paint4_linear_106_25674)" stroke-width="3"/>
<path opacity="0.06" fill-rule="evenodd" clip-rule="evenodd" d="M508.357 302.477C523.56 362.146 579.897 428.331 544.962 478.956C511.077 528.06 430.6 487.674 372.394 499.504C318.309 510.496 271.576 556.478 217.506 545.509C159.777 533.799 109.752 491.748 80.529 440.298C51.8767 389.853 47.8797 327.694 61.7273 271.246C74.242 220.232 117.607 186.629 152.377 147.418C185.845 109.675 210.581 52.585 260.522 47.0603C310.554 41.5255 346.472 92.6532 387.913 121.362C419.125 142.984 451.22 162.075 472.297 193.769C493.935 226.307 498.691 264.542 508.357 302.477Z" stroke="url(#paint5_linear_106_25674)" stroke-width="3"/>
<path opacity="0.07" fill-rule="evenodd" clip-rule="evenodd" d="M510.752 300.569C526.94 359.762 584.231 424.731 550.299 475.784C517.387 525.303 436.49 486.46 378.693 499.26C324.989 511.154 279.22 557.785 225.149 547.796C167.418 537.131 116.837 496.099 86.8216 445.34C57.3922 395.573 52.3278 333.704 65.1449 277.216C76.7283 226.165 119.357 191.928 153.323 152.251C186.017 114.061 209.673 56.7434 259.342 50.3698C309.103 43.9845 345.785 94.3059 387.58 122.192C419.058 143.194 451.373 161.66 472.927 192.874C495.056 224.92 500.46 262.937 510.752 300.569Z" stroke="url(#paint6_linear_106_25674)" stroke-width="3"/>
<path opacity="0.08" fill-rule="evenodd" clip-rule="evenodd" d="M513.085 298.631C530.246 357.331 588.466 421.073 555.541 472.534C523.606 522.448 442.318 485.15 384.947 498.91C331.639 511.696 286.841 558.956 232.787 549.943C175.073 540.32 123.957 500.314 93.1637 450.258C62.9721 401.18 56.8493 339.62 68.6387 283.111C79.2932 232.04 121.176 197.184 154.333 157.058C186.248 118.435 208.823 60.9102 258.207 53.6955C307.682 46.4676 345.11 95.9717 387.243 123.031C418.976 143.411 451.499 161.249 473.52 191.977C496.128 223.524 502.175 261.311 513.085 298.631Z" stroke="url(#paint7_linear_106_25674)" stroke-width="3"/>
<path opacity="0.09" fill-rule="evenodd" clip-rule="evenodd" d="M515.355 296.663C533.477 354.855 592.6 417.356 560.687 469.206C529.732 519.497 448.082 483.746 391.153 498.455C338.255 512.122 294.438 559.992 240.417 551.952C182.74 543.367 131.108 504.393 99.5524 455.052C68.6137 406.674 61.4417 345.441 72.2065 288.928C81.9352 237.855 123.064 202.395 155.406 161.836C186.536 122.796 208.031 65.0845 257.116 57.0367C306.29 48.9742 344.447 97.6503 386.903 123.88C418.878 143.636 451.596 160.844 474.074 191.079C497.151 222.12 503.834 259.667 515.355 296.663Z" stroke="url(#paint8_linear_106_25674)" stroke-width="3"/>
<path opacity="0.1" fill-rule="evenodd" clip-rule="evenodd" d="M517.562 294.668C536.631 352.335 596.632 413.584 565.734 465.803C535.764 516.452 453.78 482.25 397.309 497.896C344.836 512.434 302.006 560.894 248.037 553.822C190.414 546.271 138.287 508.335 105.985 459.72C74.3146 412.054 66.103 351.165 75.8468 294.668C84.6527 243.609 125.019 207.561 156.541 166.585C186.882 127.143 207.298 69.2652 256.068 60.3926C304.929 51.5038 343.797 99.3416 386.559 124.739C418.765 143.867 451.666 160.445 474.591 190.181C498.126 220.709 505.438 258.005 517.562 294.668Z" stroke="url(#paint9_linear_106_25674)" stroke-width="3"/>
<path opacity="0.11" fill-rule="evenodd" clip-rule="evenodd" d="M519.704 292.646C539.709 349.774 600.562 409.759 570.681 462.327C541.698 513.315 459.412 480.662 403.412 497.234C351.379 512.632 309.544 561.663 255.643 555.555C198.094 549.034 145.492 512.141 112.46 464.262C80.0723 417.319 70.8308 356.792 79.5574 300.329C87.444 249.301 127.04 212.68 157.738 171.303C187.285 131.476 206.621 73.4513 255.065 63.7624C303.597 54.0557 343.159 101.045 386.211 125.608C418.635 144.107 451.708 160.052 475.068 189.282C499.051 219.292 506.986 256.326 519.704 292.646Z" stroke="url(#paint10_linear_106_25674)" stroke-width="3"/>
<path opacity="0.12" fill-rule="evenodd" clip-rule="evenodd" d="M521.782 290.599C542.709 347.173 604.389 405.883 575.529 458.781C547.536 510.089 464.974 478.985 409.463 496.471C357.882 512.718 317.049 562.3 263.234 557.152C205.777 551.655 152.721 515.81 118.973 468.679C85.8846 422.468 75.6234 362.321 83.337 305.91C90.308 254.929 129.127 217.752 158.995 175.991C187.744 135.793 206.003 77.6418 254.105 67.1453C302.295 56.6296 342.534 102.761 385.859 126.486C418.49 144.354 451.722 159.667 475.508 188.385C499.927 217.869 508.477 254.631 521.782 290.599Z" stroke="url(#paint11_linear_106_25674)" stroke-width="3"/>
<path opacity="0.13" fill-rule="evenodd" clip-rule="evenodd" d="M523.795 288.529C545.631 344.534 608.111 401.958 580.274 455.166C553.273 506.775 470.466 477.22 415.457 495.608C364.343 512.694 324.518 562.806 270.806 558.613C213.458 554.135 159.968 519.343 125.522 472.97C91.7481 427.502 80.4777 367.751 87.1827 311.411C93.2423 260.493 131.276 222.775 160.311 180.646C188.259 140.094 205.44 81.8359 253.188 70.5407C301.023 59.2249 341.921 104.489 385.504 127.375C418.328 144.611 451.708 159.29 475.908 187.49C500.753 216.442 509.912 252.923 523.795 288.529Z" stroke="url(#paint12_linear_106_25674)" stroke-width="3"/>
<path opacity="0.14" fill-rule="evenodd" clip-rule="evenodd" d="M525.742 286.436C548.473 341.857 611.728 397.986 584.916 451.485C558.91 503.376 475.885 475.369 421.393 494.647C370.76 512.56 331.949 563.183 278.357 559.938C221.137 556.475 167.234 522.74 132.104 477.134C97.6608 432.42 85.3918 373.082 91.093 316.83C96.2455 265.992 133.487 227.75 161.685 185.268C188.828 144.378 204.934 86.0324 252.315 73.9477C299.782 61.8409 341.32 106.229 385.144 128.273C418.151 144.876 451.666 158.921 476.27 186.598C501.529 215.012 511.289 251.201 525.742 286.436Z" stroke="url(#paint13_linear_106_25674)" stroke-width="3"/>
<path opacity="0.15" fill-rule="evenodd" clip-rule="evenodd" d="M527.623 284.322C551.236 339.146 615.239 393.969 589.454 447.739C564.444 499.894 481.231 473.433 427.27 493.589C377.13 512.317 339.34 563.431 285.883 561.131C228.809 558.675 174.513 526.001 138.717 481.173C103.62 437.22 90.3637 378.313 95.0664 322.166C99.3163 271.424 135.758 232.674 163.117 189.857C189.451 148.643 204.485 90.2305 251.485 77.3657C298.571 64.4773 340.731 107.981 384.781 129.182C417.957 145.15 451.597 158.561 476.593 185.709C502.255 213.58 512.61 249.467 527.623 284.322Z" stroke="url(#paint14_linear_106_25674)" stroke-width="3"/>
<path opacity="0.16" fill-rule="evenodd" clip-rule="evenodd" d="M529.438 282.189C553.919 336.401 618.644 389.911 593.887 443.932C569.873 496.331 486.501 471.415 433.085 492.435C383.452 511.968 346.687 563.551 293.384 562.19C236.473 560.736 181.805 529.126 145.358 485.085C109.624 441.904 95.3911 383.442 99.1006 327.419C102.453 276.789 138.09 237.547 164.605 194.41C190.127 152.89 204.092 94.4292 250.698 80.7939C297.39 67.1335 340.154 109.745 384.414 130.102C417.748 145.434 451.5 158.211 476.877 184.824C502.931 212.148 513.873 247.723 529.438 282.189Z" stroke="url(#paint15_linear_106_25674)" stroke-width="3"/>
<path opacity="0.17" fill-rule="evenodd" clip-rule="evenodd" d="M531.185 280.038C556.521 333.625 621.942 385.812 598.213 440.066C575.198 492.69 491.694 469.316 438.837 491.188C389.724 511.512 353.988 563.546 300.854 563.117C244.124 562.658 189.105 532.116 152.025 488.87C115.669 446.47 100.471 388.47 103.193 332.589C105.653 282.086 140.479 242.368 166.148 198.929C190.856 157.116 203.754 98.6276 249.954 84.2315C296.239 69.809 339.589 111.52 384.043 131.032C417.523 145.728 451.374 157.871 477.123 183.945C503.557 210.715 515.078 245.969 531.185 280.038Z" stroke="url(#paint16_linear_106_25674)" stroke-width="3"/>
<path opacity="0.18" fill-rule="evenodd" clip-rule="evenodd" d="M532.866 277.87C559.041 330.819 625.131 381.675 602.432 436.143C580.416 488.973 496.809 467.138 444.525 489.849C395.943 510.953 361.242 563.417 308.294 563.913C251.762 564.444 196.411 534.971 158.714 492.53C121.753 450.918 105.603 393.397 107.343 337.674C108.916 287.314 142.925 247.136 167.746 203.411C191.637 161.322 203.471 102.825 249.253 87.678C295.119 72.5034 339.037 113.306 383.668 131.974C417.282 146.033 451.221 157.541 477.329 183.072C504.134 209.283 516.225 244.207 532.866 277.87Z" stroke="url(#paint17_linear_106_25674)" stroke-width="3"/>
<path opacity="0.19" fill-rule="evenodd" clip-rule="evenodd" d="M534.48 275.687C561.48 327.985 628.213 377.503 606.544 432.164C585.526 485.182 501.844 464.882 450.145 488.42C402.107 510.29 368.445 563.164 315.699 564.58C259.382 566.092 203.721 537.691 165.424 496.063C127.874 455.248 110.783 398.22 111.548 342.673C112.24 292.473 145.426 251.851 169.396 207.855C192.469 165.507 203.243 107.02 248.595 91.1325C294.03 75.216 338.497 115.104 383.29 132.926C417.026 146.348 451.041 157.224 477.498 182.206C504.66 207.853 517.314 242.438 534.48 275.687Z" stroke="url(#paint18_linear_106_25674)" stroke-width="3"/>
<path opacity="0.2" fill-rule="evenodd" clip-rule="evenodd" d="M536.026 273.49C563.836 325.124 631.186 373.298 610.546 428.133C590.526 481.32 506.798 462.551 455.698 486.901C408.216 509.527 375.595 562.79 323.067 565.118C266.982 567.604 211.031 540.278 172.151 499.47C134.029 459.459 116.009 402.941 115.806 347.586C115.623 297.56 147.981 256.512 171.099 212.262C193.351 169.67 203.069 111.212 247.979 94.5943C292.971 77.9463 337.969 116.913 382.907 133.889C416.753 146.675 450.833 156.918 477.627 181.347C505.136 206.427 518.345 240.663 536.026 273.49Z" stroke="url(#paint19_linear_106_25674)" stroke-width="3"/>
<path opacity="0.21" fill-rule="evenodd" clip-rule="evenodd" d="M537.504 271.281C566.109 322.239 634.049 369.061 614.438 424.051C595.416 477.389 511.67 460.147 461.18 485.295C414.265 508.663 382.691 562.296 330.395 565.529C274.56 568.982 218.34 542.73 178.892 502.751C140.216 463.553 121.279 407.558 120.115 352.413C119.063 302.576 150.589 261.118 172.853 216.631C194.283 173.809 202.949 115.4 247.405 98.0628C291.943 80.6939 337.452 118.732 382.521 134.863C416.465 147.013 450.598 156.625 477.718 180.497C505.561 205.005 519.317 238.883 537.504 271.281Z" stroke="url(#paint20_linear_106_25674)" stroke-width="3"/>
<path opacity="0.22" fill-rule="evenodd" clip-rule="evenodd" d="M538.914 269.061C568.299 319.331 636.803 364.796 618.22 419.922C600.195 473.392 516.457 457.671 466.591 483.604C420.255 507.701 389.729 561.683 337.682 565.814C282.113 570.226 225.644 545.051 185.647 505.907C146.431 467.528 126.591 412.072 124.473 357.153C122.559 307.521 153.248 265.668 174.657 220.96C195.263 177.926 202.882 119.584 246.873 101.537C290.945 83.4584 336.948 120.563 382.131 135.85C416.161 147.363 450.335 156.345 477.771 179.656C505.937 203.588 520.231 237.101 538.914 269.061Z" stroke="url(#paint21_linear_106_25674)" stroke-width="3"/>
<path opacity="0.23" fill-rule="evenodd" clip-rule="evenodd" d="M540.255 266.831C570.406 316.402 639.446 360.505 621.89 415.747C604.861 469.33 521.159 455.126 471.928 481.829C426.183 506.642 396.707 560.953 344.925 565.975C289.638 571.337 232.94 547.238 192.41 508.937C152.673 471.385 131.942 416.482 128.878 361.805C126.108 312.392 155.957 270.163 176.509 225.249C196.292 182.017 202.869 123.761 246.383 105.017C289.978 86.2392 336.456 122.404 381.737 136.847C415.841 147.725 450.045 156.079 477.784 178.825C506.263 202.177 521.086 235.316 540.255 266.831Z" stroke="url(#paint22_linear_106_25674)" stroke-width="3"/>
<path opacity="0.24" fill-rule="evenodd" clip-rule="evenodd" d="M541.528 264.594C572.428 313.453 641.979 356.189 625.448 411.529C609.413 465.207 525.776 452.513 477.191 479.973C432.046 505.488 403.624 560.108 352.121 566.012C297.132 572.316 240.226 549.295 199.181 511.843C158.939 475.123 137.331 420.787 133.328 366.37C129.709 317.19 158.714 274.6 178.409 229.498C197.367 186.084 202.907 127.933 245.935 108.502C289.041 89.0358 335.975 124.256 381.34 137.857C415.506 148.1 449.729 155.828 477.76 178.006C506.539 200.774 521.883 233.53 541.528 264.594Z" stroke="url(#paint23_linear_106_25674)" stroke-width="3"/>
<path opacity="0.25" fill-rule="evenodd" clip-rule="evenodd" d="M542.733 262.35C574.367 310.487 644.401 351.851 628.893 407.271C613.851 461.025 530.304 449.834 482.378 478.036C437.845 504.241 410.477 559.149 359.269 565.927C304.594 573.164 247.5 551.22 205.957 514.624C165.227 478.743 142.755 424.988 137.821 370.846C133.362 321.915 161.518 278.98 180.356 233.705C198.489 190.126 202.998 132.097 245.528 111.991C288.136 91.8478 335.507 126.118 380.939 138.878C415.156 148.489 449.385 155.592 477.698 177.198C506.765 199.38 522.621 231.745 542.733 262.35Z" stroke="url(#paint24_linear_106_25674)" stroke-width="3"/>
<path opacity="0.26" fill-rule="evenodd" clip-rule="evenodd" d="M543.869 260.1C576.221 307.505 646.712 347.494 632.225 402.974C618.173 456.786 534.744 447.092 487.487 476.021C443.575 502.902 417.264 558.078 366.365 565.722C312.021 573.883 254.758 553.016 212.735 517.281C171.533 482.245 148.212 429.084 142.355 375.233C137.062 326.565 164.367 283.303 182.349 237.871C199.657 194.141 203.141 136.253 245.162 115.483C287.261 94.6747 335.05 127.991 380.534 139.912C414.79 148.891 449.015 155.371 477.597 176.403C506.941 197.995 523.3 229.962 543.869 260.1Z" stroke="url(#paint25_linear_106_25674)" stroke-width="3"/>
<path opacity="0.27" fill-rule="evenodd" clip-rule="evenodd" d="M544.936 257.847C577.991 304.509 648.912 343.119 635.443 398.64C622.379 452.493 539.094 444.288 492.517 473.929C449.237 501.472 423.984 556.898 373.408 565.398C319.409 574.474 261.999 554.683 219.512 519.815C177.856 485.629 153.698 433.076 146.928 379.531C140.81 331.139 167.261 287.567 184.385 241.995C200.869 198.129 203.334 140.401 244.837 118.978C286.416 97.5159 334.605 129.874 380.126 140.958C414.409 149.306 448.618 155.166 477.459 175.621C507.067 196.62 523.921 228.181 544.936 257.847Z" stroke="url(#paint26_linear_106_25674)" stroke-width="3"/>
<path opacity="0.28" fill-rule="evenodd" clip-rule="evenodd" d="M545.934 255.592C579.675 301.501 651.001 338.729 638.547 394.274C626.467 448.149 543.354 441.424 497.466 471.763C454.828 499.955 430.633 555.608 380.395 564.957C326.757 574.938 269.219 556.221 226.287 522.226C184.193 488.895 159.214 436.963 151.539 383.739C144.603 335.639 170.197 291.772 186.465 246.075C202.125 202.09 203.578 144.539 244.552 122.475C285.602 100.371 334.172 131.767 379.714 142.017C414.013 149.737 448.195 154.979 477.282 174.853C507.145 195.258 524.483 226.405 545.934 255.592Z" stroke="url(#paint27_linear_106_25674)" stroke-width="3"/>
<path opacity="0.29" fill-rule="evenodd" clip-rule="evenodd" d="M546.864 253.336C581.275 298.482 652.978 334.327 641.536 389.876C630.438 443.755 547.522 438.503 502.335 469.525C460.347 498.35 437.21 554.212 387.324 564.4C334.062 575.276 276.416 557.633 233.056 524.515C190.543 492.043 164.755 440.745 156.185 387.858C148.439 340.062 173.175 295.917 188.588 250.113C203.424 206.023 203.872 148.666 244.308 125.974C284.819 103.24 333.751 133.671 379.298 143.088C413.603 150.182 447.746 154.809 477.069 174.101C507.173 193.908 524.987 224.634 546.864 253.336Z" stroke="url(#paint28_linear_106_25674)" stroke-width="3"/>
<path opacity="0.3" fill-rule="evenodd" clip-rule="evenodd" d="M547.725 251.081C582.79 295.455 654.843 329.914 644.41 385.449C634.29 439.315 551.596 435.526 507.12 467.216C465.792 496.661 443.713 552.712 394.194 563.728C341.322 575.49 283.588 558.918 239.817 526.681C196.901 495.075 170.32 444.422 160.863 391.887C152.317 344.41 176.192 300.003 190.751 254.106C204.765 209.927 204.215 152.783 244.104 129.473C284.066 106.122 333.341 135.584 378.879 144.173C413.177 150.642 447.272 154.657 476.818 173.365C507.152 192.571 525.432 222.87 547.725 251.081Z" stroke="url(#paint29_linear_106_25674)" stroke-width="3"/>
<path opacity="0.31" fill-rule="evenodd" clip-rule="evenodd" d="M548.517 248.828C584.219 292.421 656.597 325.493 647.168 380.996C638.022 434.831 555.578 432.495 511.82 464.838C471.162 494.89 450.14 551.109 401 562.945C348.535 575.582 290.733 560.078 246.568 528.728C203.266 497.99 175.907 447.994 165.573 395.826C156.235 348.68 179.248 304.029 192.954 258.055C206.147 213.802 204.607 156.887 243.939 132.974C283.343 109.016 332.943 137.507 378.457 145.27C412.737 151.117 446.771 154.523 476.53 172.645C507.082 191.25 525.819 221.113 548.517 248.828Z" stroke="url(#paint30_linear_106_25674)" stroke-width="3"/>
<path opacity="0.32" fill-rule="evenodd" clip-rule="evenodd" d="M549.241 246.579C585.563 289.381 658.239 321.066 649.81 376.519C641.634 430.305 559.464 429.414 516.436 462.393C476.454 493.036 456.489 549.404 407.743 562.05C355.697 575.552 297.847 561.114 253.306 530.653C209.636 500.788 181.512 451.462 170.313 399.676C160.191 352.874 182.34 307.995 195.196 261.96C207.57 217.648 205.047 160.98 243.814 136.473C282.651 111.922 332.556 139.44 378.031 146.381C412.281 151.609 446.245 154.409 476.205 171.943C506.964 189.944 526.148 219.366 549.241 246.579Z" stroke="url(#paint31_linear_106_25674)" stroke-width="3"/>
<path opacity="0.33" fill-rule="evenodd" clip-rule="evenodd" d="M549.896 244.334C586.823 286.339 659.77 316.635 652.336 372.02C645.126 425.74 563.255 426.283 520.965 459.883C481.669 491.104 462.759 547.601 414.419 561.047C362.808 575.402 304.928 562.027 260.029 532.46C216.008 503.471 187.136 454.825 175.079 403.434C164.184 356.99 185.469 311.9 197.475 265.819C209.033 221.464 205.535 165.059 243.727 139.973C281.99 114.841 332.181 141.383 377.603 147.505C411.812 152.116 445.695 154.315 475.844 171.259C506.797 188.655 526.419 217.629 549.896 244.334Z" stroke="url(#paint32_linear_106_25674)" stroke-width="3"/>
<path opacity="0.34" fill-rule="evenodd" clip-rule="evenodd" d="M550.482 242.096C587.997 283.295 661.189 312.204 654.746 367.502C648.496 421.139 566.95 423.105 525.406 457.311C486.803 489.095 468.948 545.701 421.027 559.936C369.864 575.134 311.974 562.819 266.735 534.148C222.379 506.038 192.774 458.084 179.871 407.103C168.211 361.029 188.631 315.743 199.791 269.633C210.534 225.249 206.07 169.124 243.68 143.471C281.359 117.77 331.818 143.336 377.171 148.643C411.329 152.641 445.119 154.241 475.447 170.594C506.583 187.384 526.632 215.904 550.482 242.096Z" stroke="url(#paint33_linear_106_25674)" stroke-width="3"/>
<path opacity="0.35" fill-rule="evenodd" clip-rule="evenodd" d="M551.001 239.866C589.085 280.251 662.498 307.773 657.039 362.968C651.745 416.504 570.548 419.882 529.758 454.678C491.857 487.01 475.053 543.707 427.565 558.72C376.863 574.749 318.983 563.49 273.421 535.719C228.748 508.49 198.424 461.239 184.686 410.682C172.271 364.991 191.826 319.526 202.142 273.401C212.073 229.003 206.651 173.175 243.67 146.967C280.757 120.711 331.465 145.298 376.736 149.795C410.831 153.183 444.518 154.188 475.013 169.95C506.321 186.132 526.788 214.191 551.001 239.866Z" stroke="url(#paint34_linear_106_25674)" stroke-width="3"/>
<path opacity="0.36" fill-rule="evenodd" clip-rule="evenodd" d="M551.451 237.646C590.089 277.209 663.695 303.345 659.216 358.419C654.872 411.838 574.049 416.617 534.021 451.987C496.828 484.852 481.074 541.619 434.031 557.4C383.803 574.25 325.953 564.042 280.085 537.173C235.113 510.829 204.085 464.291 189.523 414.17C176.362 368.874 195.052 323.247 204.528 277.123C213.648 232.726 207.279 177.21 243.699 150.46C280.187 123.661 331.125 147.27 376.298 150.961C410.32 153.742 443.894 154.157 474.544 169.326C506.011 184.899 526.886 212.493 551.451 237.646Z" stroke="url(#paint35_linear_106_25674)" stroke-width="3"/>
<path opacity="0.37" fill-rule="evenodd" clip-rule="evenodd" d="M551.834 235.436C591.009 274.171 664.781 298.923 661.276 353.859C657.877 407.144 577.451 413.311 538.193 449.238C501.715 482.622 487.008 539.44 440.422 555.979C390.683 573.637 332.88 564.476 286.724 538.511C241.47 513.054 209.755 467.238 194.379 417.568C180.483 372.679 198.308 326.906 206.946 280.798C215.26 236.416 207.951 181.23 243.766 153.951C279.646 126.622 330.796 149.251 375.857 152.141C409.795 154.319 443.246 154.148 474.04 168.723C505.655 183.688 526.928 210.809 551.834 235.436Z" stroke="url(#paint36_linear_106_25674)" stroke-width="3"/>
<path opacity="0.38" fill-rule="evenodd" clip-rule="evenodd" d="M552.149 233.239C591.843 271.139 665.758 294.509 663.22 349.289C660.759 402.423 580.754 409.966 542.274 446.436C506.518 480.323 492.855 537.174 446.738 554.458C397.499 572.912 339.764 564.794 293.337 539.735C247.817 515.166 215.431 470.083 199.253 420.877C184.632 376.407 201.592 330.503 209.396 284.427C216.907 240.075 208.669 185.234 243.87 157.439C279.135 129.593 330.478 151.241 375.413 153.336C409.257 154.914 442.574 154.161 473.501 168.143C505.252 182.498 526.913 209.143 552.149 233.239Z" stroke="url(#paint37_linear_106_25674)" stroke-width="3"/>
<path opacity="0.39" fill-rule="evenodd" clip-rule="evenodd" d="M552.397 231.055C592.594 268.114 666.624 290.105 665.047 344.712C663.518 397.679 583.958 406.585 546.262 443.581C511.235 477.956 498.612 534.82 452.976 552.839C404.251 572.078 346.601 564.997 299.921 540.846C254.153 517.166 221.112 472.826 204.143 424.095C188.807 380.056 204.904 334.038 211.877 288.008C218.589 243.701 209.431 189.22 244.011 160.922C278.654 132.572 330.172 153.241 374.967 154.546C408.705 155.528 441.879 154.198 472.927 167.586C504.803 181.331 526.841 207.493 552.397 231.055Z" stroke="url(#paint38_linear_106_25674)" stroke-width="3"/>
<path opacity="0.4" fill-rule="evenodd" clip-rule="evenodd" d="M552.578 228.886C593.259 265.098 667.38 285.713 666.758 340.131C666.154 392.914 587.062 403.17 550.156 440.675C515.864 475.524 504.278 532.382 459.134 551.124C410.935 571.135 353.389 565.087 306.474 541.844C260.475 519.055 226.794 475.466 209.046 427.224C193.006 383.626 208.24 337.512 214.387 291.543C220.303 247.295 210.235 193.189 244.188 164.401C278.203 135.561 329.877 155.251 374.519 155.77C408.141 156.161 441.16 154.258 472.319 167.053C504.308 180.189 526.714 205.863 552.578 228.886Z" stroke="url(#paint39_linear_106_25674)" stroke-width="3"/>
<path opacity="0.41" fill-rule="evenodd" clip-rule="evenodd" d="M552.692 226.734C593.842 262.093 668.027 281.335 668.352 335.548C668.667 388.131 590.066 399.724 553.957 437.722C520.405 473.029 509.852 529.863 465.212 549.316C417.55 570.086 360.127 565.064 312.993 542.731C266.781 520.833 232.476 478.005 213.961 430.264C197.227 387.119 211.601 340.923 216.926 295.03C222.051 250.855 211.083 197.14 244.402 167.876C277.782 138.558 329.593 157.27 374.068 157.009C407.563 156.813 440.42 154.343 471.677 166.545C503.768 179.071 526.531 204.253 552.692 226.734Z" stroke="url(#paint40_linear_106_25674)" stroke-width="3"/>
<path opacity="0.42" fill-rule="evenodd" clip-rule="evenodd" d="M552.741 224.599C594.341 259.101 668.566 276.974 669.83 330.964C671.057 383.332 592.968 396.247 557.662 434.722C524.856 470.473 515.332 527.263 471.207 547.416C424.095 568.933 366.812 564.931 319.478 543.507C273.069 522.502 238.157 480.442 218.886 433.215C201.47 390.534 214.985 344.271 219.492 298.469C223.829 254.382 211.973 201.073 244.652 171.345C277.391 141.563 329.321 159.298 373.614 158.264C406.974 157.485 439.657 154.453 471.002 166.061C503.183 177.979 526.293 202.664 552.741 224.599Z" stroke="url(#paint41_linear_106_25674)" stroke-width="3"/>
<path opacity="0.43" fill-rule="evenodd" clip-rule="evenodd" d="M552.723 222.484C594.756 256.123 668.996 272.632 671.192 326.384C673.323 378.52 595.77 392.743 561.272 431.679C529.217 467.858 520.716 524.586 477.117 545.426C430.566 567.678 373.442 564.689 325.925 544.176C279.336 524.063 243.833 482.779 223.819 436.077C205.732 393.87 218.39 347.558 222.084 301.861C225.639 257.875 212.905 204.986 244.937 174.808C277.028 144.575 329.06 161.335 373.159 159.534C406.372 158.177 438.872 154.589 470.294 165.604C502.554 176.914 526 201.097 552.723 222.484Z" stroke="url(#paint42_linear_106_25674)" stroke-width="3"/>
<path opacity="0.44" fill-rule="evenodd" clip-rule="evenodd" d="M552.64 220.39C595.089 253.162 669.318 268.311 672.439 321.808C675.466 373.698 598.47 389.214 564.786 428.594C533.487 465.185 526.005 521.833 482.941 543.349C436.963 566.321 380.015 564.339 332.332 544.736C285.58 525.516 249.503 485.016 228.758 438.85C210.011 397.129 221.815 350.782 224.7 305.205C227.478 261.334 213.877 208.879 245.258 178.265C276.696 147.595 328.81 163.381 372.701 160.82C405.758 158.89 438.066 154.75 469.554 165.174C501.88 175.876 525.652 199.554 552.64 220.39Z" stroke="url(#paint43_linear_106_25674)" stroke-width="3"/>
<path opacity="0.45" fill-rule="evenodd" clip-rule="evenodd" d="M552.492 218.317C595.34 250.218 669.534 264.013 673.57 317.24C677.486 368.868 601.068 385.662 568.203 425.469C537.665 462.458 531.195 519.007 488.678 541.186C443.283 564.867 386.53 563.884 338.698 545.191C291.8 526.862 255.165 487.154 233.702 441.536C214.306 400.309 225.258 353.945 227.341 308.501C229.346 264.759 214.889 212.753 245.613 181.716C276.393 150.622 328.572 165.437 372.242 162.121C405.133 159.624 437.239 154.938 468.781 164.772C501.164 174.867 525.251 198.036 552.492 218.317Z" stroke="url(#paint44_linear_106_25674)" stroke-width="3"/>
<path opacity="0.46" fill-rule="evenodd" clip-rule="evenodd" d="M552.28 216.268C595.508 247.293 669.643 259.741 674.587 312.682C679.382 364.032 603.564 382.089 571.522 422.307C541.749 459.678 536.287 516.111 494.326 538.94C449.525 563.315 392.984 563.325 345.02 545.54C297.993 528.103 260.816 489.194 238.649 444.134C218.615 403.412 228.719 357.045 230.005 311.749C231.243 268.149 215.941 216.606 246.002 185.159C276.118 153.656 328.344 167.502 371.781 163.439C404.496 160.379 436.392 155.153 467.977 164.397C500.405 173.888 524.797 196.543 552.28 216.268Z" stroke="url(#paint45_linear_106_25674)" stroke-width="3"/>
<path opacity="0.47" fill-rule="evenodd" clip-rule="evenodd" d="M552.004 214.244C595.595 244.39 669.646 255.496 675.489 308.135C681.156 359.193 605.958 378.497 574.743 419.11C545.739 456.847 541.279 513.146 499.884 536.614C455.688 561.67 399.375 562.664 351.297 545.787C304.158 529.239 266.456 491.136 243.596 446.646C222.937 406.438 232.195 360.083 232.69 314.949C233.166 271.505 217.032 220.437 246.426 188.596C275.873 156.695 328.128 169.576 371.319 164.773C403.848 161.156 435.524 155.395 467.142 164.052C499.603 172.94 524.29 195.078 552.004 214.244Z" stroke="url(#paint46_linear_106_25674)" stroke-width="3"/>
<path opacity="0.48" fill-rule="evenodd" clip-rule="evenodd" d="M551.664 212.246C595.602 241.51 669.544 251.281 676.277 303.604C682.807 354.355 608.249 374.889 577.867 415.88C549.635 453.968 546.17 510.115 505.351 534.208C461.768 559.931 405.701 561.903 357.526 545.931C310.292 530.272 272.082 492.981 248.543 449.07C227.27 409.386 235.686 363.059 235.395 318.101C235.116 274.825 218.161 224.248 246.883 192.024C275.657 159.741 327.923 171.659 370.855 166.123C403.189 161.954 434.637 155.666 466.276 163.737C498.76 172.023 523.73 193.641 551.664 212.246Z" stroke="url(#paint47_linear_106_25674)" stroke-width="3"/>
<path opacity="0.49" fill-rule="evenodd" clip-rule="evenodd" d="M551.262 210.275C595.528 238.654 669.339 247.097 676.952 299.089C684.336 349.518 610.439 371.267 580.891 412.619C553.436 451.043 550.959 507.02 510.724 531.725C467.766 558.102 411.962 561.042 363.706 545.975C316.392 531.203 277.691 494.73 253.487 451.409C231.612 412.258 239.19 365.974 238.12 321.204C237.091 278.111 219.328 228.036 247.374 195.444C275.47 162.792 327.73 173.751 370.39 167.49C402.52 162.775 433.73 155.965 465.381 163.452C497.875 171.138 523.119 192.233 551.262 210.275Z" stroke="url(#paint48_linear_106_25674)" stroke-width="3"/>
<path opacity="0.5" fill-rule="evenodd" clip-rule="evenodd" d="M550.798 208.333C595.375 235.824 669.029 242.948 677.513 294.593C685.742 344.686 612.525 367.633 583.816 409.33C557.14 448.074 555.644 503.864 516.003 529.169C473.679 556.186 418.154 560.085 369.834 545.92C322.459 532.033 283.283 496.384 258.426 453.662C235.962 415.053 242.705 368.827 240.863 324.26C239.091 281.362 220.532 231.802 247.897 198.855C275.312 165.848 327.547 175.852 369.924 168.874C401.841 163.619 432.805 156.293 464.456 163.198C496.95 170.287 522.457 190.855 550.798 208.333Z" stroke="url(#paint49_linear_106_25674)" stroke-width="3"/>
<path opacity="0.51" fill-rule="evenodd" clip-rule="evenodd" d="M550.272 206.421C595.143 233.023 668.618 238.834 677.963 290.118C687.027 339.862 614.509 363.989 586.642 406.014C560.747 445.063 560.226 500.649 521.187 526.54C479.505 554.182 424.277 559.033 375.91 545.768C328.488 532.763 288.855 497.943 263.359 455.83C240.317 417.772 246.231 371.619 243.624 327.268C241.114 284.578 221.771 235.545 248.452 202.258C275.182 168.909 327.376 177.962 369.458 170.275C401.152 164.486 431.861 156.65 463.502 162.976C495.986 169.469 521.744 189.509 550.272 206.421Z" stroke="url(#paint50_linear_106_25674)" stroke-width="3"/>
<path opacity="0.52" fill-rule="evenodd" clip-rule="evenodd" d="M549.685 204.541C594.832 230.251 668.104 234.758 678.301 285.668C688.19 335.047 616.391 360.338 589.367 402.674C564.258 442.013 564.703 497.378 526.274 523.841C485.244 552.095 430.328 557.887 381.931 545.52C334.479 533.394 294.406 499.409 268.285 457.915C244.678 420.415 249.766 374.35 246.4 330.228C243.16 287.758 223.047 239.265 249.04 205.651C275.08 171.975 327.216 180.081 368.991 171.693C400.453 165.376 430.9 157.038 462.52 162.786C494.982 168.687 520.982 188.195 549.685 204.541Z" stroke="url(#paint51_linear_106_25674)" stroke-width="3"/>
<path opacity="0.53" fill-rule="evenodd" clip-rule="evenodd" d="M549.038 202.693C594.444 227.51 667.49 230.722 678.528 281.243C689.233 330.245 618.17 356.681 591.993 399.312C567.67 438.925 569.074 494.052 531.264 521.075C490.894 549.926 436.306 556.651 387.895 545.178C340.43 533.929 299.933 500.782 273.2 459.916C249.041 422.983 253.309 377.021 249.191 333.14C245.228 290.903 224.357 242.962 249.659 209.035C275.007 175.045 327.067 182.21 368.523 173.129C399.746 166.29 429.921 157.456 461.51 162.63C493.94 167.941 520.17 186.915 549.038 202.693Z" stroke="url(#paint52_linear_106_25674)" stroke-width="3"/>
<path opacity="0.54" fill-rule="evenodd" clip-rule="evenodd" d="M548.331 200.879C593.979 224.801 666.777 226.728 678.644 276.846C690.155 325.458 619.847 353.022 594.519 395.931C570.984 435.802 573.339 490.675 536.154 518.243C496.453 547.677 442.21 555.325 393.801 544.743C346.338 534.367 305.435 502.064 278.105 461.834C253.405 425.475 256.858 379.631 251.996 336.005C247.317 294.013 225.701 246.635 250.309 212.408C274.962 178.119 326.929 184.347 368.055 174.582C399.029 167.227 428.926 157.905 460.473 162.507C492.86 167.231 519.31 185.669 548.331 200.879Z" stroke="url(#paint53_linear_106_25674)" stroke-width="3"/>
<path opacity="0.55" fill-rule="evenodd" clip-rule="evenodd" d="M547.566 199.1C593.437 222.128 665.964 222.779 678.652 272.48C690.958 320.688 621.422 349.361 596.944 392.532C574.199 432.646 577.496 487.248 540.945 515.349C501.921 545.352 448.037 553.912 399.647 544.217C352.203 534.712 310.91 503.256 282.996 463.67C257.769 427.894 260.412 382.181 254.814 338.822C249.426 297.087 227.078 250.284 250.989 215.772C274.945 181.197 326.803 186.493 367.587 176.053C398.304 168.19 427.914 158.386 459.409 162.419C491.743 166.56 518.402 184.46 547.566 199.1Z" stroke="url(#paint54_linear_106_25674)" stroke-width="3"/>
<path opacity="0.56" fill-rule="evenodd" clip-rule="evenodd" d="M546.742 197.358C592.821 219.49 665.055 218.875 678.551 268.146C691.642 315.938 622.895 345.701 599.269 389.117C577.315 429.459 581.545 483.775 545.636 512.394C507.296 542.95 453.786 552.413 405.432 543.602C358.022 534.963 316.357 504.358 287.873 465.424C262.132 430.238 263.971 384.671 257.644 341.592C251.554 300.126 228.489 253.908 251.701 219.125C274.956 184.277 326.688 188.649 367.12 177.542C397.572 169.177 426.887 158.898 458.319 162.366C490.589 165.926 517.447 183.287 546.742 197.358Z" stroke="url(#paint55_linear_106_25674)" stroke-width="3"/>
<path opacity="0.57" fill-rule="evenodd" clip-rule="evenodd" d="M545.862 195.653C592.129 216.889 664.048 215.019 678.342 263.848C692.207 311.21 624.266 342.045 601.493 385.69C580.332 426.244 585.486 480.257 550.225 509.381C512.576 540.477 459.457 550.831 411.153 542.899C363.793 535.122 321.773 505.373 292.734 467.099C266.491 432.509 267.532 387.102 260.484 344.314C253.701 303.129 229.931 257.508 252.442 222.467C274.994 187.361 326.584 190.813 366.653 179.049C396.831 170.189 425.845 159.443 457.204 162.349C489.4 165.332 516.446 182.151 545.862 195.653Z" stroke="url(#paint56_linear_106_25674)" stroke-width="3"/>
<path opacity="0.58" fill-rule="evenodd" clip-rule="evenodd" d="M544.925 193.987C591.365 214.327 662.946 211.212 678.027 259.586C692.655 306.506 625.536 338.395 603.616 382.251C583.249 423.002 589.318 476.698 554.711 506.313C517.762 537.932 465.046 549.168 416.81 542.111C369.516 535.192 327.158 506.3 297.578 468.693C270.845 434.707 271.094 389.474 263.334 346.99C255.865 306.097 231.405 261.083 253.212 225.798C275.06 190.448 326.492 192.987 366.187 180.574C396.083 171.226 424.788 160.021 456.065 162.368C488.176 164.777 515.399 181.055 544.925 193.987Z" stroke="url(#paint57_linear_106_25674)" stroke-width="3"/>
<path opacity="0.59" fill-rule="evenodd" clip-rule="evenodd" d="M543.932 192.361C590.527 211.806 661.751 207.458 677.606 255.364C692.985 301.83 626.706 334.752 605.64 378.804C586.065 419.737 593.04 473.099 559.094 503.191C522.85 535.32 470.554 547.426 422.4 541.239C375.187 535.173 332.508 507.141 302.402 470.209C275.193 436.833 274.657 391.787 266.193 349.619C258.046 309.03 232.909 264.632 254.012 229.117C275.154 193.537 326.411 195.169 365.722 182.118C395.329 172.289 423.717 160.631 454.902 162.423C486.918 164.264 514.308 179.998 543.932 192.361Z" stroke="url(#paint58_linear_106_25674)" stroke-width="3"/>
<path opacity="0.6" fill-rule="evenodd" clip-rule="evenodd" d="M542.884 190.776C589.618 209.327 660.462 203.757 677.08 251.182C693.2 297.183 627.774 331.119 607.562 375.35C588.782 416.45 596.652 469.463 563.373 500.018C527.842 532.641 475.979 545.607 427.923 540.285C380.806 535.066 337.824 507.897 307.205 471.647C279.534 438.887 278.218 394.042 269.059 352.201C260.243 311.927 234.443 268.157 254.84 232.425C275.275 196.628 326.341 197.361 365.258 183.681C394.568 173.378 422.632 161.275 453.715 162.517C485.627 163.791 513.172 178.982 542.884 190.776Z" stroke="url(#paint59_linear_106_25674)" stroke-width="3"/>
<path opacity="0.61" fill-rule="evenodd" clip-rule="evenodd" d="M541.783 189.234C588.638 206.892 659.081 200.111 676.451 247.045C693.299 292.568 628.743 327.498 609.385 371.892C591.398 413.143 600.154 465.793 567.548 496.796C532.734 529.899 481.319 543.712 433.377 539.25C386.372 534.875 343.102 508.571 311.986 473.009C283.866 440.87 281.778 396.24 271.932 354.738C262.456 314.789 236.007 271.655 255.697 235.721C275.422 199.721 326.282 199.561 364.795 185.262C393.801 174.493 421.535 161.953 452.506 162.648C484.303 163.362 511.994 178.007 541.783 189.234Z" stroke="url(#paint60_linear_106_25674)" stroke-width="3"/>
<path opacity="0.62" fill-rule="evenodd" clip-rule="evenodd" d="M540.629 187.735C587.588 204.501 657.61 196.523 675.72 242.952C693.285 287.987 629.612 323.891 611.108 368.432C593.913 409.819 603.545 462.09 571.617 493.529C537.528 527.096 486.573 541.745 438.761 538.137C391.882 534.599 348.343 509.161 316.744 474.294C288.187 442.783 285.334 398.381 274.811 357.228C264.682 317.616 237.599 275.128 256.581 239.005C275.597 202.816 326.235 201.771 364.334 186.862C393.028 175.634 420.425 162.665 451.275 162.818C482.947 162.975 510.773 177.075 540.629 187.735Z" stroke="url(#paint61_linear_106_25674)" stroke-width="3"/>
<path opacity="0.63" fill-rule="evenodd" clip-rule="evenodd" d="M539.422 186.28C586.47 202.157 656.05 192.993 674.887 238.907C693.157 283.442 630.383 320.301 612.731 364.972C596.328 406.48 606.825 458.358 575.58 490.218C542.221 524.234 491.741 539.708 444.073 536.947C397.335 534.241 353.543 509.671 321.476 475.504C292.496 444.626 288.886 400.465 277.694 359.673C266.923 320.408 239.22 278.574 257.493 242.276C275.799 205.912 326.2 203.99 363.875 188.482C392.251 176.802 419.304 163.412 450.023 163.027C481.561 162.631 509.511 176.187 539.422 186.28Z" stroke="url(#paint62_linear_106_25674)" stroke-width="3"/>
<path opacity="0.64" fill-rule="evenodd" clip-rule="evenodd" d="M538.165 184.872C585.283 199.86 654.402 189.525 673.953 234.912C692.916 278.936 631.054 316.729 614.254 361.514C598.643 403.129 609.994 454.6 579.437 486.865C546.812 521.315 496.82 537.601 449.311 535.683C402.73 533.803 358.702 510.101 326.182 476.641C296.792 446.401 292.431 402.494 280.581 362.072C269.175 323.165 240.867 281.994 258.431 245.535C276.028 209.01 326.176 206.218 363.419 190.121C391.468 177.998 418.172 164.194 448.751 163.276C480.145 162.333 508.208 175.343 538.165 184.872Z" stroke="url(#paint63_linear_106_25674)" stroke-width="3"/>
<path opacity="0.65" fill-rule="evenodd" clip-rule="evenodd" d="M536.857 183.51C584.029 197.612 652.668 186.118 672.921 230.968C692.565 274.471 631.628 313.177 615.677 358.061C600.856 399.766 613.051 450.816 583.187 483.474C551.302 518.343 501.811 535.429 454.476 534.346C408.065 533.285 363.818 510.453 330.86 477.704C301.074 448.107 295.97 404.467 283.471 364.427C271.44 325.887 242.541 285.388 259.396 248.782C276.282 212.108 326.164 208.455 362.965 191.779C390.681 179.22 417.029 165.012 447.459 163.565C478.699 162.079 506.866 174.544 536.857 183.51Z" stroke="url(#paint64_linear_106_25674)" stroke-width="3"/>
<path opacity="0.66" fill-rule="evenodd" clip-rule="evenodd" d="M535.5 182.196C582.711 195.415 650.849 182.776 671.791 227.078C692.103 270.049 632.105 309.648 617.003 354.614C602.97 396.396 615.996 447.011 586.83 480.047C555.689 515.319 506.711 533.192 459.565 532.939C413.339 532.69 368.89 510.728 335.508 478.696C305.34 449.747 299.502 406.385 286.363 366.737C273.716 328.574 244.242 288.756 260.388 252.015C276.564 215.207 326.163 210.701 362.513 193.457C389.891 180.47 415.877 165.865 446.148 163.894C477.226 161.871 505.485 173.791 535.5 182.196Z" stroke="url(#paint65_linear_106_25674)" stroke-width="3"/>
<path opacity="0.67" fill-rule="evenodd" clip-rule="evenodd" d="M534.095 180.93C581.327 193.27 648.946 179.5 670.564 223.243C691.532 265.673 632.485 306.143 618.229 351.176C604.983 393.019 618.83 443.186 590.365 476.585C559.973 512.245 511.52 530.893 464.577 531.462C418.551 532.02 373.916 510.928 340.126 479.617C309.588 451.319 303.024 408.249 289.255 369.004C276.002 331.228 245.967 292.096 261.405 255.235C276.871 218.306 326.174 212.957 362.065 195.155C389.097 181.748 414.715 166.754 444.819 164.265C475.725 161.709 504.067 173.085 534.095 180.93Z" stroke="url(#paint66_linear_106_25674)" stroke-width="3"/>
<path opacity="0.68" fill-rule="evenodd" clip-rule="evenodd" d="M532.643 179.715C579.88 191.178 646.962 176.291 669.243 219.466C690.854 261.344 632.77 302.665 619.358 347.748C606.896 389.639 621.551 439.344 593.792 473.093C564.153 509.125 516.238 528.535 469.512 529.919C423.699 531.275 378.896 511.053 344.712 480.468C313.818 452.827 306.536 410.06 292.147 371.226C278.298 333.847 247.717 295.41 262.447 258.442C277.205 221.406 326.197 215.221 361.62 196.873C388.3 183.054 413.545 167.68 443.473 164.677C474.197 161.595 502.611 172.427 532.643 179.715Z" stroke="url(#paint67_linear_106_25674)" stroke-width="3"/>
<path opacity="0.69" fill-rule="evenodd" clip-rule="evenodd" d="M531.145 178.551C578.371 189.141 644.896 173.151 667.827 215.748C690.069 257.065 632.959 299.215 620.389 344.333C608.709 386.256 624.161 435.488 597.11 469.571C568.228 505.961 520.862 526.119 474.368 528.31C428.782 530.459 383.827 511.106 349.264 481.251C318.029 454.269 310.037 411.817 295.039 373.405C280.602 336.432 249.491 298.697 263.514 261.635C277.564 224.506 326.231 217.495 361.179 198.611C387.501 184.388 412.367 168.642 442.11 165.132C472.645 161.528 501.12 171.818 531.145 178.551Z" stroke="url(#paint68_linear_106_25674)" stroke-width="3"/>
<path opacity="0.7" fill-rule="evenodd" clip-rule="evenodd" d="M529.602 177.438C576.801 187.159 642.752 170.081 666.32 212.091C689.179 252.838 633.055 295.796 621.323 340.933C610.422 382.875 626.66 431.619 600.32 466.022C572.198 502.754 525.393 523.648 479.144 526.639C433.799 529.572 388.709 511.088 353.783 481.966C322.218 455.648 313.526 413.523 297.928 375.542C282.915 338.983 251.288 301.957 264.606 264.815C277.949 227.605 326.278 219.778 360.743 200.369C386.7 185.751 411.182 169.641 440.731 165.629C471.067 161.509 499.594 171.258 529.602 177.438Z" stroke="url(#paint69_linear_106_25674)" stroke-width="3"/>
<path opacity="0.71" fill-rule="evenodd" clip-rule="evenodd" d="M528.015 176.378C575.171 185.234 640.531 167.084 664.721 208.497C688.185 248.665 633.057 292.41 622.161 337.551C612.036 379.495 629.046 427.741 603.421 462.45C576.062 499.508 529.83 521.125 483.84 524.908C438.748 528.617 393.54 510.999 358.265 482.615C326.386 456.963 317.001 415.177 300.815 377.636C285.235 341.501 253.107 305.19 265.722 267.981C278.36 230.704 326.336 222.07 360.31 202.147C385.897 187.142 409.991 170.678 439.337 166.169C469.466 161.539 498.035 170.748 528.015 176.378Z" stroke="url(#paint70_linear_106_25674)" stroke-width="3"/>
<path opacity="0.72" fill-rule="evenodd" clip-rule="evenodd" d="M526.386 175.372C573.483 183.368 638.234 164.161 663.034 204.968C687.088 244.548 632.967 289.058 622.903 334.187C613.551 376.121 631.322 423.856 606.414 458.856C579.821 496.225 534.171 518.55 488.454 523.117C443.63 527.595 398.319 510.843 362.711 483.2C330.53 458.217 320.463 416.78 303.699 379.689C287.562 343.986 254.949 308.396 266.862 271.133C278.796 233.802 326.407 224.372 359.882 203.946C385.094 188.562 408.793 171.752 437.93 166.752C467.843 161.618 496.442 170.289 526.386 175.372Z" stroke="url(#paint71_linear_106_25674)" stroke-width="3"/>
<path opacity="0.73" fill-rule="evenodd" clip-rule="evenodd" d="M524.714 174.421C571.738 181.561 635.863 161.312 661.258 201.505C685.89 240.49 632.786 285.742 623.55 330.845C614.968 372.754 633.486 419.965 609.298 455.243C583.473 492.908 538.417 515.928 492.985 521.27C448.442 526.508 403.045 510.62 367.118 483.72C334.65 459.41 323.91 418.333 306.578 381.7C289.895 346.438 256.812 311.575 268.024 274.271C279.257 236.899 326.489 226.683 359.459 205.765C384.29 190.011 407.591 172.864 436.509 167.379C466.198 161.748 494.818 169.881 524.714 174.421Z" stroke="url(#paint72_linear_106_25674)" stroke-width="3"/>
<path opacity="0.74" fill-rule="evenodd" clip-rule="evenodd" d="M523.002 173.525C569.936 179.814 633.419 158.54 659.396 198.11C684.592 236.491 632.514 282.464 624.102 327.526C616.286 369.396 635.539 416.073 612.072 451.613C587.018 489.558 542.566 513.259 497.433 519.368C453.183 525.358 407.717 510.332 371.487 484.178C338.744 460.542 327.34 419.837 309.452 383.67C292.233 348.857 258.695 314.726 269.21 277.395C279.744 239.996 326.584 229.003 359.041 207.605C383.487 191.49 406.384 174.014 435.076 168.05C464.532 161.927 493.163 169.526 523.002 173.525Z" stroke="url(#paint73_linear_106_25674)" stroke-width="3"/>
<path opacity="0.75" fill-rule="evenodd" clip-rule="evenodd" d="M521.252 172.685C568.08 178.129 630.904 155.846 657.449 194.785C683.197 232.555 632.153 279.227 624.561 324.231C617.507 366.049 637.481 412.18 614.739 447.968C590.457 486.179 546.618 510.547 501.798 517.414C457.853 524.147 412.334 509.98 375.815 484.575C342.811 461.615 330.754 421.293 312.32 385.6C294.576 351.244 260.599 317.851 270.418 280.505C280.255 243.091 326.691 231.332 358.629 209.466C382.684 192.998 405.174 175.202 433.631 168.766C462.847 162.158 491.479 169.224 521.252 172.685Z" stroke="url(#paint74_linear_106_25674)" stroke-width="3"/>
<path opacity="0.76" fill-rule="evenodd" clip-rule="evenodd" d="M519.462 171.903C566.171 176.507 628.32 153.231 655.419 191.532C681.704 228.682 631.704 276.032 624.927 320.965C618.63 362.715 639.313 408.29 617.296 444.312C593.788 482.772 550.573 507.793 506.077 515.409C462.45 522.876 416.894 509.566 380.102 484.912C346.851 462.631 334.15 422.701 315.181 387.49C296.922 353.598 262.522 320.948 271.649 283.601C280.792 246.185 326.811 233.671 358.223 211.348C381.882 194.536 403.96 176.429 432.175 169.526C461.142 162.44 489.767 168.975 519.462 171.903Z" stroke="url(#paint75_linear_106_25674)" stroke-width="3"/>
<path opacity="0.77" fill-rule="evenodd" clip-rule="evenodd" d="M517.636 171.178C564.21 174.949 625.669 150.697 653.308 188.352C680.116 224.876 631.167 272.881 625.201 317.727C619.657 359.398 641.036 404.405 619.744 440.647C597.011 479.341 554.429 505 510.27 513.356C466.974 521.549 421.397 509.092 384.346 485.19C350.862 463.589 337.527 424.061 318.034 389.341C299.272 355.921 264.464 324.018 272.9 286.682C281.352 249.277 326.943 236.019 357.823 213.251C381.081 196.103 402.744 177.694 430.709 170.332C459.421 162.774 488.026 168.781 517.636 171.178Z" stroke="url(#paint76_linear_106_25674)" stroke-width="3"/>
<path opacity="0.78" fill-rule="evenodd" clip-rule="evenodd" d="M515.775 170.513C562.198 173.455 622.953 148.245 651.117 185.247C678.434 221.137 630.545 269.775 625.384 314.52C620.589 356.097 642.649 400.527 622.085 436.974C600.128 475.887 558.188 502.17 514.378 511.257C471.424 520.166 425.841 508.559 388.548 485.411C354.844 464.491 340.884 425.376 320.88 391.154C301.624 358.213 266.424 327.062 274.174 289.748C281.938 252.367 327.087 238.376 357.431 215.175C380.284 197.7 401.526 178.999 429.235 171.183C457.682 163.16 486.26 168.642 515.775 170.513Z" stroke="url(#paint77_linear_106_25674)" stroke-width="3"/>
<path opacity="0.79" fill-rule="evenodd" clip-rule="evenodd" d="M513.879 169.907C560.137 172.028 620.173 145.876 648.848 182.218C676.661 217.468 629.837 266.717 625.477 311.347C621.425 352.817 644.153 396.659 624.317 433.296C603.137 472.414 561.848 499.306 518.399 509.113C475.799 518.729 430.227 507.969 392.705 485.576C358.794 465.339 344.221 426.646 323.716 392.928C303.979 360.474 268.402 330.077 275.468 292.801C282.548 255.455 327.245 240.743 357.045 217.12C379.488 199.328 400.308 180.342 427.753 172.08C455.929 163.598 484.469 168.558 513.879 169.907Z" stroke="url(#paint78_linear_106_25674)" stroke-width="3"/>
<path opacity="0.8" fill-rule="evenodd" clip-rule="evenodd" d="M511.949 169.361C558.029 170.667 617.331 143.591 646.502 179.267C674.797 213.871 629.046 263.707 625.48 308.208C622.167 349.558 645.55 392.803 626.441 429.617C606.039 468.923 565.409 496.41 522.332 506.928C480.098 517.241 434.552 507.323 396.816 485.686C362.713 466.132 347.537 427.871 326.543 394.666C306.334 362.704 270.396 333.067 276.783 295.838C283.182 258.542 327.415 243.119 356.666 219.086C378.697 200.985 399.09 181.725 426.263 173.023C454.16 164.09 482.653 168.531 511.949 169.361Z" stroke="url(#paint79_linear_106_25674)" stroke-width="3"/>
<path opacity="0.81" fill-rule="evenodd" clip-rule="evenodd" d="M509.988 168.876C555.875 169.375 614.429 141.392 644.082 176.395C672.845 210.347 628.173 260.749 625.396 305.106C622.815 346.322 646.838 388.961 628.458 425.937C608.833 465.417 568.87 493.484 526.178 504.703C484.321 515.703 438.816 506.623 400.882 485.743C366.6 466.873 350.831 429.053 329.359 396.366C308.691 364.903 272.407 336.029 278.118 298.861C283.84 261.626 327.599 245.504 356.295 221.074C377.909 202.673 397.872 183.147 424.767 174.013C452.379 164.635 480.815 168.56 509.988 168.876Z" stroke="url(#paint80_linear_106_25674)" stroke-width="3"/>
<path opacity="0.82" fill-rule="evenodd" clip-rule="evenodd" d="M507.996 168.453C553.675 168.151 611.468 139.279 641.589 173.604C670.805 206.898 627.218 257.844 625.223 302.043C623.37 343.113 648.02 385.136 630.367 422.26C611.52 461.898 572.232 490.53 529.936 502.44C488.466 514.117 443.018 505.872 404.901 485.748C370.453 467.562 354.102 430.192 332.164 398.03C311.048 367.073 274.434 338.964 279.473 301.869C284.522 264.707 327.795 247.899 355.933 223.083C377.125 204.392 396.656 184.608 423.266 175.049C450.584 165.234 478.955 168.646 507.996 168.453Z" stroke="url(#paint81_linear_106_25674)" stroke-width="3"/>
<path opacity="0.83" fill-rule="evenodd" clip-rule="evenodd" d="M505.975 168.093C551.433 166.997 608.451 137.254 639.025 170.895C668.681 203.526 626.184 254.992 624.965 299.021C623.833 339.931 649.095 381.329 632.17 418.588C614.1 458.369 575.495 487.551 533.605 500.141C492.534 512.486 447.158 505.069 408.872 485.703C374.271 468.201 357.35 431.289 334.957 399.659C313.404 369.214 276.475 341.872 280.848 304.863C285.228 267.786 328.005 250.304 355.579 225.113C376.347 206.14 395.442 186.11 421.76 176.132C448.779 165.888 477.075 168.789 505.975 168.093Z" stroke="url(#paint82_linear_106_25674)" stroke-width="3"/>
<path opacity="0.84" fill-rule="evenodd" clip-rule="evenodd" d="M503.926 167.795C549.149 165.914 605.38 135.318 636.392 168.27C666.473 200.232 625.071 252.197 624.622 296.04C624.205 336.779 650.065 377.544 633.867 414.923C616.573 454.832 578.657 484.549 537.185 497.809C496.524 510.81 451.235 504.218 412.794 485.609C378.055 468.79 360.573 432.346 337.738 401.253C315.759 371.325 278.532 344.754 282.241 307.842C285.958 270.862 328.227 252.718 355.234 227.165C375.573 207.92 394.231 187.651 420.25 177.261C446.963 166.595 475.175 168.991 503.926 167.795Z" stroke="url(#paint83_linear_106_25674)" stroke-width="3"/>
<path opacity="0.85" fill-rule="evenodd" clip-rule="evenodd" d="M501.85 167.561C546.824 164.902 602.257 133.472 633.693 165.729C664.184 197.018 623.881 249.459 624.195 293.104C624.487 333.659 650.931 373.782 635.459 411.267C618.939 451.29 581.72 481.527 540.676 495.446C500.434 509.093 455.247 503.32 416.668 485.466C381.802 469.331 363.772 433.362 340.507 402.813C318.113 373.408 280.603 347.609 283.654 310.806C286.711 273.936 328.464 255.141 354.898 229.238C374.807 209.73 393.023 189.231 418.738 178.438C445.139 167.358 473.257 169.252 501.85 167.561Z" stroke="url(#paint84_linear_106_25674)" stroke-width="3"/>
<path opacity="0.86" fill-rule="evenodd" clip-rule="evenodd" d="M499.749 167.391C544.461 163.962 599.082 131.716 630.927 163.275C661.815 193.885 622.615 246.78 623.685 290.214C624.679 330.572 651.692 370.046 636.945 407.624C621.199 447.744 584.683 478.486 544.078 493.054C504.265 507.337 459.195 502.376 420.491 485.278C385.512 469.826 366.944 434.34 343.261 404.339C320.465 375.463 282.686 350.438 285.085 313.756C287.487 277.006 328.714 257.574 354.572 231.334C374.047 211.571 391.82 190.852 417.224 179.663C443.306 168.175 471.322 169.571 499.749 167.391Z" stroke="url(#paint85_linear_106_25674)" stroke-width="3"/>
<path opacity="0.87" fill-rule="evenodd" clip-rule="evenodd" d="M497.624 167.286C542.061 163.096 595.859 130.052 628.098 160.908C659.368 190.836 621.275 244.162 623.094 287.371C624.783 327.521 652.351 366.338 638.327 403.994C623.353 444.198 587.546 475.43 547.389 490.634C508.017 505.542 463.078 501.389 424.263 485.045C389.185 470.274 370.091 435.279 346.001 405.833C322.814 377.49 284.784 353.241 286.534 316.69C288.287 280.073 328.978 260.016 354.256 233.45C373.294 213.443 390.622 192.513 415.71 180.935C441.467 169.048 469.372 169.95 497.624 167.286Z" stroke="url(#paint86_linear_106_25674)" stroke-width="3"/>
<path opacity="0.88" fill-rule="evenodd" clip-rule="evenodd" d="M495.476 167.246C539.625 162.303 592.59 128.481 625.208 158.629C656.846 187.871 619.863 241.605 622.422 284.578C624.8 324.507 652.908 362.66 639.605 400.38C625.401 440.654 590.31 472.359 550.611 488.19C511.688 503.711 466.895 500.36 427.985 484.768C392.82 470.678 373.211 436.182 348.727 407.295C325.16 379.489 286.893 356.017 288 319.61C289.11 283.137 329.256 262.467 353.95 235.589C372.549 215.345 389.43 194.214 414.196 182.254C439.621 169.976 467.407 170.389 495.476 167.246Z" stroke="url(#paint87_linear_106_25674)" stroke-width="3"/>
<path opacity="0.89" fill-rule="evenodd" clip-rule="evenodd" d="M493.307 167.272C537.156 161.585 589.275 127.004 622.258 156.44C654.25 184.992 618.379 239.113 621.671 281.835C624.731 321.532 653.364 359.014 640.78 396.786C627.344 437.114 592.974 469.278 553.743 485.723C515.279 501.847 470.645 499.29 431.654 484.45C396.416 471.038 376.304 437.048 351.437 408.725C327.502 381.462 289.014 358.768 289.485 322.516C289.956 286.197 329.548 264.928 353.656 237.749C371.813 217.279 388.245 195.955 412.682 183.622C437.771 170.96 465.429 170.888 493.307 167.272Z" stroke="url(#paint88_linear_106_25674)" stroke-width="3"/>
<path opacity="0.9" fill-rule="evenodd" clip-rule="evenodd" d="M491.118 167.364C534.654 160.942 585.919 125.62 619.251 154.342C651.582 182.201 616.825 236.685 620.843 279.145C624.576 318.599 653.72 355.403 641.853 393.211C629.183 433.58 595.539 466.187 556.785 483.235C518.789 499.951 474.329 498.182 435.27 484.091C399.972 471.357 379.368 437.879 354.132 410.124C329.841 383.409 291.147 361.492 290.986 325.406C290.825 289.254 329.854 267.399 353.372 239.931C371.085 219.243 387.067 197.736 411.171 185.037C435.918 172 463.439 171.447 491.118 167.364Z" stroke="url(#paint89_linear_106_25674)" stroke-width="3"/>
<path opacity="0.91" fill-rule="evenodd" clip-rule="evenodd" d="M488.91 167.523C532.121 160.374 582.521 124.332 616.188 152.336C648.844 179.498 615.204 234.324 619.938 276.509C624.338 315.708 653.978 351.828 642.825 389.66C630.917 430.054 598.005 463.089 559.737 480.729C522.217 498.024 477.945 497.037 438.834 483.694C403.488 471.634 382.404 438.676 356.81 411.494C332.175 385.329 293.291 364.192 292.504 328.282C291.716 292.307 330.174 269.879 353.101 242.134C370.368 221.238 385.898 199.557 409.663 186.501C434.062 173.096 461.439 172.067 488.91 167.523Z" stroke="url(#paint90_linear_106_25674)" stroke-width="3"/>
<path opacity="0.92" fill-rule="evenodd" clip-rule="evenodd" d="M486.686 167.748C529.559 159.884 579.085 123.14 613.072 150.423C646.038 176.886 613.515 232.031 618.959 273.93C624.017 312.861 654.137 348.291 643.696 386.135C632.549 426.54 600.372 459.987 562.599 478.206C525.564 496.07 481.493 495.858 442.344 483.258C406.963 471.872 385.411 439.44 359.472 412.834C334.504 387.225 295.445 366.865 294.039 331.143C292.63 295.356 330.509 272.368 352.841 244.359C369.66 223.264 384.737 201.418 408.159 188.012C432.205 174.248 459.428 172.748 486.686 167.748Z" stroke="url(#paint91_linear_106_25674)" stroke-width="3"/>
<path opacity="0.93" fill-rule="evenodd" clip-rule="evenodd" d="M484.446 168.041C526.97 159.47 575.612 122.044 609.904 148.603C643.166 174.364 611.762 229.807 617.906 271.407C623.615 310.061 654.201 344.795 644.468 382.636C634.077 423.038 602.64 456.882 565.371 475.67C528.83 494.09 484.974 494.645 445.8 482.787C410.396 472.071 388.389 440.172 362.116 414.146C336.827 389.095 297.609 369.514 295.59 333.99C293.567 298.401 330.859 274.867 352.594 246.606C368.964 225.322 383.587 203.319 406.66 189.571C430.347 175.457 457.41 173.491 484.446 168.041Z" stroke="url(#paint92_linear_106_25674)" stroke-width="3"/>
<path opacity="0.94" fill-rule="evenodd" clip-rule="evenodd" d="M482.191 168.402C524.354 159.133 572.105 121.045 606.687 146.879C640.231 171.936 609.945 227.653 616.781 268.943C623.132 307.31 654.168 341.342 645.141 379.167C635.503 419.552 604.81 453.777 568.053 473.121C532.014 492.086 488.386 493.4 449.201 482.282C413.788 472.233 391.336 440.872 364.743 415.43C339.145 390.941 299.782 372.137 297.156 336.822C294.526 301.443 331.224 277.375 352.36 248.875C368.278 227.41 382.447 205.261 405.166 191.179C428.491 176.722 455.385 174.295 482.191 168.402Z" stroke="url(#paint93_linear_106_25674)" stroke-width="3"/>
<path opacity="0.95" fill-rule="evenodd" clip-rule="evenodd" d="M479.923 168.831C521.715 158.875 568.566 120.144 603.423 145.25C637.233 169.601 608.067 225.571 615.585 266.54C622.57 304.607 654.042 337.933 645.717 375.73C636.828 416.084 606.883 450.674 570.646 470.562C535.116 490.06 491.729 492.126 452.547 481.743C417.137 472.359 394.253 441.542 367.351 416.688C341.457 392.764 301.964 374.736 298.739 339.64C295.507 304.48 331.604 279.892 352.139 251.165C367.605 229.528 381.319 207.242 403.68 192.835C426.637 178.043 453.354 175.161 479.923 168.831Z" stroke="url(#paint94_linear_106_25674)" stroke-width="3"/>
<path opacity="0.96" fill-rule="evenodd" clip-rule="evenodd" d="M477.645 169.329C519.053 158.695 564.996 119.341 600.114 143.718C634.177 167.361 606.129 223.562 614.32 264.198C621.931 301.956 653.824 334.571 646.196 372.326C638.053 412.636 608.859 447.575 573.149 467.995C538.136 488.015 495.003 490.824 455.838 481.173C420.444 472.451 397.14 442.183 369.942 417.919C343.762 394.563 304.155 377.31 300.336 342.443C296.511 307.512 331.999 282.419 351.932 253.476C366.945 231.678 380.203 209.263 402.201 194.538C424.786 179.421 451.318 176.089 477.645 169.329Z" stroke="url(#paint95_linear_106_25674)" stroke-width="3"/>
<path opacity="0.97" fill-rule="evenodd" clip-rule="evenodd" d="M475.356 169.895C516.371 158.595 561.398 118.637 596.762 142.283C631.063 165.218 604.132 221.627 612.988 261.919C621.216 299.359 653.514 331.258 646.58 368.958C639.178 409.21 610.738 444.483 575.563 465.422C541.075 485.951 498.209 489.496 459.074 480.573C423.707 472.509 399.995 442.796 372.513 419.124C346.06 396.339 306.354 379.86 301.949 345.232C297.537 310.541 332.41 284.955 351.74 255.81C366.299 233.858 379.1 211.325 400.731 196.29C422.939 180.855 449.28 177.079 475.356 169.895Z" stroke="url(#paint96_linear_106_25674)" stroke-width="3"/>
<path opacity="0.98" fill-rule="evenodd" clip-rule="evenodd" d="M473.059 170.529C513.669 158.573 557.774 118.033 593.369 140.946C627.894 163.171 602.079 219.767 611.589 259.705C620.426 296.815 653.113 327.995 646.87 365.627C640.204 405.807 612.521 441.4 577.888 462.845C543.932 483.871 501.344 488.143 462.254 479.944C426.926 472.534 402.819 443.382 375.065 420.305C348.351 398.093 308.56 382.385 303.577 348.006C298.584 313.565 332.836 287.501 351.562 258.164C365.665 236.07 378.01 213.425 399.271 198.09C421.098 182.346 447.24 178.131 473.059 170.529Z" stroke="url(#paint97_linear_106_25674)" stroke-width="3"/>
<path opacity="0.99" fill-rule="evenodd" clip-rule="evenodd" d="M470.754 171.233C510.95 158.632 554.125 117.528 589.937 139.708C624.672 161.222 599.972 217.984 610.127 257.557C619.563 294.328 652.625 324.784 647.066 362.337C641.132 402.432 614.208 438.327 580.125 460.266C546.707 481.777 504.411 486.767 465.377 479.288C430.101 472.53 405.611 443.941 377.598 421.462C350.634 399.825 310.774 384.887 305.219 350.767C299.654 316.584 333.278 290.055 351.399 260.54C365.047 238.311 376.936 215.566 397.822 199.938C419.264 183.894 445.199 179.245 470.754 171.233Z" stroke="url(#paint98_linear_106_25674)" stroke-width="3"/>
<path fill-rule="evenodd" clip-rule="evenodd" d="M468.444 172.007C508.215 158.77 550.455 117.123 586.468 138.57C621.399 159.373 597.811 216.278 608.601 255.476C618.627 291.898 652.049 321.627 647.171 359.088C641.964 399.084 615.801 435.267 582.273 457.688C549.4 479.671 507.408 485.371 468.444 478.607C433.231 472.495 408.37 444.476 380.111 422.596C352.91 401.536 312.994 387.366 306.875 353.513C300.745 319.598 333.736 292.619 351.252 262.938C364.444 240.583 375.876 217.746 396.384 201.834C417.438 185.497 443.159 180.422 468.444 172.007Z" stroke="url(#paint99_linear_106_25674)" stroke-width="3"/>
<defs>
<linearGradient id="paint0_linear_106_25674" x1="551.366" y1="333.152" x2="39.9366" y2="252.149" gradientUnits="userSpaceOnUse">
<stop stop-color="#B620E0"/>
<stop offset="1" stop-color="#0047FF"/>
</linearGradient>
<linearGradient id="paint1_linear_106_25674" x1="554.247" y1="330.368" x2="43.1735" y2="258.542" gradientUnits="userSpaceOnUse">
<stop stop-color="#B620E0"/>
<stop offset="1" stop-color="#0047FF"/>
</linearGradient>
<linearGradient id="paint2_linear_106_25674" x1="557.05" y1="327.548" x2="46.4956" y2="264.86" gradientUnits="userSpaceOnUse">
<stop stop-color="#B620E0"/>
<stop offset="1" stop-color="#0047FF"/>
</linearGradient>
<linearGradient id="paint3_linear_106_25674" x1="559.774" y1="324.692" x2="49.9013" y2="271.103" gradientUnits="userSpaceOnUse">
<stop stop-color="#B620E0"/>
<stop offset="1" stop-color="#0047FF"/>
</linearGradient>
<linearGradient id="paint4_linear_106_25674" x1="562.418" y1="321.803" x2="53.3888" y2="277.269" gradientUnits="userSpaceOnUse">
<stop stop-color="#B620E0"/>
<stop offset="1" stop-color="#0047FF"/>
</linearGradient>
<linearGradient id="paint5_linear_106_25674" x1="564.981" y1="318.883" x2="56.9562" y2="283.358" gradientUnits="userSpaceOnUse">
<stop stop-color="#B620E0"/>
<stop offset="1" stop-color="#0047FF"/>
</linearGradient>
<linearGradient id="paint6_linear_106_25674" x1="567.464" y1="315.932" x2="60.6012" y2="289.368" gradientUnits="userSpaceOnUse">
<stop stop-color="#B620E0"/>
<stop offset="1" stop-color="#0047FF"/>
</linearGradient>
<linearGradient id="paint7_linear_106_25674" x1="569.865" y1="312.952" x2="64.3223" y2="295.298" gradientUnits="userSpaceOnUse">
<stop stop-color="#B620E0"/>
<stop offset="1" stop-color="#0047FF"/>
</linearGradient>
<linearGradient id="paint8_linear_106_25674" x1="572.184" y1="309.946" x2="68.1174" y2="301.147" gradientUnits="userSpaceOnUse">
<stop stop-color="#B620E0"/>
<stop offset="1" stop-color="#0047FF"/>
</linearGradient>
<linearGradient id="paint9_linear_106_25674" x1="574.42" y1="306.914" x2="71.9847" y2="306.914" gradientUnits="userSpaceOnUse">
<stop stop-color="#B620E0"/>
<stop offset="1" stop-color="#0047FF"/>
</linearGradient>
<linearGradient id="paint10_linear_106_25674" x1="576.573" y1="303.86" x2="75.922" y2="312.599" gradientUnits="userSpaceOnUse">
<stop stop-color="#B620E0"/>
<stop offset="1" stop-color="#0047FF"/>
</linearGradient>
<linearGradient id="paint11_linear_106_25674" x1="578.644" y1="300.783" x2="79.9279" y2="318.199" gradientUnits="userSpaceOnUse">
<stop stop-color="#B620E0"/>
<stop offset="1" stop-color="#0047FF"/>
</linearGradient>
<linearGradient id="paint12_linear_106_25674" x1="580.63" y1="297.687" x2="83.9995" y2="323.714" gradientUnits="userSpaceOnUse">
<stop stop-color="#B620E0"/>
<stop offset="1" stop-color="#0047FF"/>
</linearGradient>
<linearGradient id="paint13_linear_106_25674" x1="582.533" y1="294.572" x2="88.1352" y2="329.144" gradientUnits="userSpaceOnUse">
<stop stop-color="#B620E0"/>
<stop offset="1" stop-color="#0047FF"/>
</linearGradient>
<linearGradient id="paint14_linear_106_25674" x1="584.351" y1="291.441" x2="92.3333" y2="334.487" gradientUnits="userSpaceOnUse">
<stop stop-color="#B620E0"/>
<stop offset="1" stop-color="#0047FF"/>
</linearGradient>
<linearGradient id="paint15_linear_106_25674" x1="586.085" y1="288.295" x2="96.5916" y2="339.742" gradientUnits="userSpaceOnUse">
<stop stop-color="#B620E0"/>
<stop offset="1" stop-color="#0047FF"/>
</linearGradient>
<linearGradient id="paint16_linear_106_25674" x1="587.733" y1="285.135" x2="100.908" y2="344.91" gradientUnits="userSpaceOnUse">
<stop stop-color="#B620E0"/>
<stop offset="1" stop-color="#0047FF"/>
</linearGradient>
<linearGradient id="paint17_linear_106_25674" x1="589.297" y1="281.965" x2="105.28" y2="349.989" gradientUnits="userSpaceOnUse">
<stop stop-color="#B620E0"/>
<stop offset="1" stop-color="#0047FF"/>
</linearGradient>
<linearGradient id="paint18_linear_106_25674" x1="590.776" y1="278.785" x2="109.707" y2="354.979" gradientUnits="userSpaceOnUse">
<stop stop-color="#B620E0"/>
<stop offset="1" stop-color="#0047FF"/>
</linearGradient>
<linearGradient id="paint19_linear_106_25674" x1="592.17" y1="275.597" x2="114.185" y2="359.879" gradientUnits="userSpaceOnUse">
<stop stop-color="#B620E0"/>
<stop offset="1" stop-color="#0047FF"/>
</linearGradient>
<linearGradient id="paint20_linear_106_25674" x1="593.479" y1="272.403" x2="118.714" y2="364.688" gradientUnits="userSpaceOnUse">
<stop stop-color="#B620E0"/>
<stop offset="1" stop-color="#0047FF"/>
</linearGradient>
<linearGradient id="paint21_linear_106_25674" x1="594.702" y1="269.205" x2="123.29" y2="369.406" gradientUnits="userSpaceOnUse">
<stop stop-color="#B620E0"/>
<stop offset="1" stop-color="#0047FF"/>
</linearGradient>
<linearGradient id="paint22_linear_106_25674" x1="595.84" y1="266.004" x2="127.912" y2="374.033" gradientUnits="userSpaceOnUse">
<stop stop-color="#B620E0"/>
<stop offset="1" stop-color="#0047FF"/>
</linearGradient>
<linearGradient id="paint23_linear_106_25674" x1="596.892" y1="262.802" x2="132.578" y2="378.569" gradientUnits="userSpaceOnUse">
<stop stop-color="#B620E0"/>
<stop offset="1" stop-color="#0047FF"/>
</linearGradient>
<linearGradient id="paint24_linear_106_25674" x1="597.86" y1="259.601" x2="137.286" y2="383.012" gradientUnits="userSpaceOnUse">
<stop stop-color="#B620E0"/>
<stop offset="1" stop-color="#0047FF"/>
</linearGradient>
<linearGradient id="paint25_linear_106_25674" x1="598.742" y1="256.403" x2="142.034" y2="387.362" gradientUnits="userSpaceOnUse">
<stop stop-color="#B620E0"/>
<stop offset="1" stop-color="#0047FF"/>
</linearGradient>
<linearGradient id="paint26_linear_106_25674" x1="599.539" y1="253.209" x2="146.819" y2="391.619" gradientUnits="userSpaceOnUse">
<stop stop-color="#B620E0"/>
<stop offset="1" stop-color="#0047FF"/>
</linearGradient>
<linearGradient id="paint27_linear_106_25674" x1="600.251" y1="250.021" x2="151.64" y2="395.784" gradientUnits="userSpaceOnUse">
<stop stop-color="#B620E0"/>
<stop offset="1" stop-color="#0047FF"/>
</linearGradient>
<linearGradient id="paint28_linear_106_25674" x1="600.879" y1="246.841" x2="156.495" y2="399.855" gradientUnits="userSpaceOnUse">
<stop stop-color="#B620E0"/>
<stop offset="1" stop-color="#0047FF"/>
</linearGradient>
<linearGradient id="paint29_linear_106_25674" x1="601.422" y1="243.671" x2="161.381" y2="403.833" gradientUnits="userSpaceOnUse">
<stop stop-color="#B620E0"/>
<stop offset="1" stop-color="#0047FF"/>
</linearGradient>
<linearGradient id="paint30_linear_106_25674" x1="601.881" y1="240.511" x2="166.296" y2="407.717" gradientUnits="userSpaceOnUse">
<stop stop-color="#B620E0"/>
<stop offset="1" stop-color="#0047FF"/>
</linearGradient>
<linearGradient id="paint31_linear_106_25674" x1="602.256" y1="237.365" x2="171.239" y2="411.507" gradientUnits="userSpaceOnUse">
<stop stop-color="#B620E0"/>
<stop offset="1" stop-color="#0047FF"/>
</linearGradient>
<linearGradient id="paint32_linear_106_25674" x1="602.548" y1="234.234" x2="176.208" y2="415.204" gradientUnits="userSpaceOnUse">
<stop stop-color="#B620E0"/>
<stop offset="1" stop-color="#0047FF"/>
</linearGradient>
<linearGradient id="paint33_linear_106_25674" x1="602.757" y1="231.118" x2="181.2" y2="418.808" gradientUnits="userSpaceOnUse">
<stop stop-color="#B620E0"/>
<stop offset="1" stop-color="#0047FF"/>
</linearGradient>
<linearGradient id="paint34_linear_106_25674" x1="602.883" y1="228.021" x2="186.213" y2="422.317" gradientUnits="userSpaceOnUse">
<stop stop-color="#B620E0"/>
<stop offset="1" stop-color="#0047FF"/>
</linearGradient>
<linearGradient id="paint35_linear_106_25674" x1="602.926" y1="224.944" x2="191.246" y2="425.734" gradientUnits="userSpaceOnUse">
<stop stop-color="#B620E0"/>
<stop offset="1" stop-color="#0047FF"/>
</linearGradient>
<linearGradient id="paint36_linear_106_25674" x1="602.888" y1="221.888" x2="196.296" y2="429.057" gradientUnits="userSpaceOnUse">
<stop stop-color="#B620E0"/>
<stop offset="1" stop-color="#0047FF"/>
</linearGradient>
<linearGradient id="paint37_linear_106_25674" x1="602.769" y1="218.855" x2="201.362" y2="432.286" gradientUnits="userSpaceOnUse">
<stop stop-color="#B620E0"/>
<stop offset="1" stop-color="#0047FF"/>
</linearGradient>
<linearGradient id="paint38_linear_106_25674" x1="602.568" y1="215.846" x2="206.441" y2="435.423" gradientUnits="userSpaceOnUse">
<stop stop-color="#B620E0"/>
<stop offset="1" stop-color="#0047FF"/>
</linearGradient>
<linearGradient id="paint39_linear_106_25674" x1="602.287" y1="212.864" x2="211.532" y2="438.467" gradientUnits="userSpaceOnUse">
<stop stop-color="#B620E0"/>
<stop offset="1" stop-color="#0047FF"/>
</linearGradient>
<linearGradient id="paint40_linear_106_25674" x1="601.927" y1="209.91" x2="216.632" y2="441.419" gradientUnits="userSpaceOnUse">
<stop stop-color="#B620E0"/>
<stop offset="1" stop-color="#0047FF"/>
</linearGradient>
<linearGradient id="paint41_linear_106_25674" x1="601.488" y1="206.986" x2="221.74" y2="444.278" gradientUnits="userSpaceOnUse">
<stop stop-color="#B620E0"/>
<stop offset="1" stop-color="#0047FF"/>
</linearGradient>
<linearGradient id="paint42_linear_106_25674" x1="600.971" y1="204.092" x2="226.854" y2="447.046" gradientUnits="userSpaceOnUse">
<stop stop-color="#B620E0"/>
<stop offset="1" stop-color="#0047FF"/>
</linearGradient>
<linearGradient id="paint43_linear_106_25674" x1="600.376" y1="201.231" x2="231.972" y2="449.723" gradientUnits="userSpaceOnUse">
<stop stop-color="#B620E0"/>
<stop offset="1" stop-color="#0047FF"/>
</linearGradient>
<linearGradient id="paint44_linear_106_25674" x1="599.704" y1="198.405" x2="237.092" y2="452.309" gradientUnits="userSpaceOnUse">
<stop stop-color="#B620E0"/>
<stop offset="1" stop-color="#0047FF"/>
</linearGradient>
<linearGradient id="paint45_linear_106_25674" x1="598.956" y1="195.615" x2="242.212" y2="454.804" gradientUnits="userSpaceOnUse">
<stop stop-color="#B620E0"/>
<stop offset="1" stop-color="#0047FF"/>
</linearGradient>
<linearGradient id="paint46_linear_106_25674" x1="598.132" y1="192.861" x2="247.33" y2="457.21" gradientUnits="userSpaceOnUse">
<stop stop-color="#B620E0"/>
<stop offset="1" stop-color="#0047FF"/>
</linearGradient>
<linearGradient id="paint47_linear_106_25674" x1="597.234" y1="190.147" x2="252.444" y2="459.527" gradientUnits="userSpaceOnUse">
<stop stop-color="#B620E0"/>
<stop offset="1" stop-color="#0047FF"/>
</linearGradient>
<linearGradient id="paint48_linear_106_25674" x1="596.263" y1="187.473" x2="257.554" y2="461.755" gradientUnits="userSpaceOnUse">
<stop stop-color="#B620E0"/>
<stop offset="1" stop-color="#0047FF"/>
</linearGradient>
<linearGradient id="paint49_linear_106_25674" x1="595.218" y1="184.841" x2="262.656" y2="463.895" gradientUnits="userSpaceOnUse">
<stop stop-color="#B620E0"/>
<stop offset="1" stop-color="#0047FF"/>
</linearGradient>
<linearGradient id="paint50_linear_106_25674" x1="594.102" y1="182.253" x2="267.749" y2="465.947" gradientUnits="userSpaceOnUse">
<stop stop-color="#B620E0"/>
<stop offset="1" stop-color="#0047FF"/>
</linearGradient>
<linearGradient id="paint51_linear_106_25674" x1="592.915" y1="179.709" x2="272.832" y2="467.913" gradientUnits="userSpaceOnUse">
<stop stop-color="#B620E0"/>
<stop offset="1" stop-color="#0047FF"/>
</linearGradient>
<linearGradient id="paint52_linear_106_25674" x1="591.658" y1="177.211" x2="277.902" y2="469.793" gradientUnits="userSpaceOnUse">
<stop stop-color="#B620E0"/>
<stop offset="1" stop-color="#0047FF"/>
</linearGradient>
<linearGradient id="paint53_linear_106_25674" x1="590.332" y1="174.761" x2="282.958" y2="471.588" gradientUnits="userSpaceOnUse">
<stop stop-color="#B620E0"/>
<stop offset="1" stop-color="#0047FF"/>
</linearGradient>
<linearGradient id="paint54_linear_106_25674" x1="588.937" y1="172.36" x2="287.999" y2="473.299" gradientUnits="userSpaceOnUse">
<stop stop-color="#B620E0"/>
<stop offset="1" stop-color="#0047FF"/>
</linearGradient>
<linearGradient id="paint55_linear_106_25674" x1="587.476" y1="170.009" x2="293.022" y2="474.926" gradientUnits="userSpaceOnUse">
<stop stop-color="#B620E0"/>
<stop offset="1" stop-color="#0047FF"/>
</linearGradient>
<linearGradient id="paint56_linear_106_25674" x1="585.949" y1="167.71" x2="298.026" y2="476.47" gradientUnits="userSpaceOnUse">
<stop stop-color="#B620E0"/>
<stop offset="1" stop-color="#0047FF"/>
</linearGradient>
<linearGradient id="paint57_linear_106_25674" x1="584.358" y1="165.464" x2="303.01" y2="477.933" gradientUnits="userSpaceOnUse">
<stop stop-color="#B620E0"/>
<stop offset="1" stop-color="#0047FF"/>
</linearGradient>
<linearGradient id="paint58_linear_106_25674" x1="582.703" y1="163.273" x2="307.971" y2="479.316" gradientUnits="userSpaceOnUse">
<stop stop-color="#B620E0"/>
<stop offset="1" stop-color="#0047FF"/>
</linearGradient>
<linearGradient id="paint59_linear_106_25674" x1="580.985" y1="161.137" x2="312.908" y2="480.618" gradientUnits="userSpaceOnUse">
<stop stop-color="#B620E0"/>
<stop offset="1" stop-color="#0047FF"/>
</linearGradient>
<linearGradient id="paint60_linear_106_25674" x1="579.206" y1="159.057" x2="317.821" y2="481.841" gradientUnits="userSpaceOnUse">
<stop stop-color="#B620E0"/>
<stop offset="1" stop-color="#0047FF"/>
</linearGradient>
<linearGradient id="paint61_linear_106_25674" x1="577.367" y1="157.036" x2="322.706" y2="482.987" gradientUnits="userSpaceOnUse">
<stop stop-color="#B620E0"/>
<stop offset="1" stop-color="#0047FF"/>
</linearGradient>
<linearGradient id="paint62_linear_106_25674" x1="575.47" y1="155.074" x2="327.564" y2="484.056" gradientUnits="userSpaceOnUse">
<stop stop-color="#B620E0"/>
<stop offset="1" stop-color="#0047FF"/>
</linearGradient>
<linearGradient id="paint63_linear_106_25674" x1="573.514" y1="153.173" x2="332.391" y2="485.05" gradientUnits="userSpaceOnUse">
<stop stop-color="#B620E0"/>
<stop offset="1" stop-color="#0047FF"/>
</linearGradient>
<linearGradient id="paint64_linear_106_25674" x1="571.502" y1="151.333" x2="337.188" y2="485.969" gradientUnits="userSpaceOnUse">
<stop stop-color="#B620E0"/>
<stop offset="1" stop-color="#0047FF"/>
</linearGradient>
<linearGradient id="paint65_linear_106_25674" x1="569.436" y1="149.555" x2="341.952" y2="486.814" gradientUnits="userSpaceOnUse">
<stop stop-color="#B620E0"/>
<stop offset="1" stop-color="#0047FF"/>
</linearGradient>
<linearGradient id="paint66_linear_106_25674" x1="567.315" y1="147.842" x2="346.682" y2="487.587" gradientUnits="userSpaceOnUse">
<stop stop-color="#B620E0"/>
<stop offset="1" stop-color="#0047FF"/>
</linearGradient>
<linearGradient id="paint67_linear_106_25674" x1="565.142" y1="146.193" x2="351.377" y2="488.289" gradientUnits="userSpaceOnUse">
<stop stop-color="#B620E0"/>
<stop offset="1" stop-color="#0047FF"/>
</linearGradient>
<linearGradient id="paint68_linear_106_25674" x1="562.919" y1="144.611" x2="356.036" y2="488.922" gradientUnits="userSpaceOnUse">
<stop stop-color="#B620E0"/>
<stop offset="1" stop-color="#0047FF"/>
</linearGradient>
<linearGradient id="paint69_linear_106_25674" x1="560.645" y1="143.095" x2="360.657" y2="489.485" gradientUnits="userSpaceOnUse">
<stop stop-color="#B620E0"/>
<stop offset="1" stop-color="#0047FF"/>
</linearGradient>
<linearGradient id="paint70_linear_106_25674" x1="558.324" y1="141.647" x2="365.239" y2="489.981" gradientUnits="userSpaceOnUse">
<stop stop-color="#B620E0"/>
<stop offset="1" stop-color="#0047FF"/>
</linearGradient>
<linearGradient id="paint71_linear_106_25674" x1="555.955" y1="140.268" x2="369.781" y2="490.411" gradientUnits="userSpaceOnUse">
<stop stop-color="#B620E0"/>
<stop offset="1" stop-color="#0047FF"/>
</linearGradient>
<linearGradient id="paint72_linear_106_25674" x1="553.542" y1="138.959" x2="374.282" y2="490.776" gradientUnits="userSpaceOnUse">
<stop stop-color="#B620E0"/>
<stop offset="1" stop-color="#0047FF"/>
</linearGradient>
<linearGradient id="paint73_linear_106_25674" x1="551.084" y1="137.721" x2="378.74" y2="491.078" gradientUnits="userSpaceOnUse">
<stop stop-color="#B620E0"/>
<stop offset="1" stop-color="#0047FF"/>
</linearGradient>
<linearGradient id="paint74_linear_106_25674" x1="548.584" y1="136.554" x2="383.155" y2="491.318" gradientUnits="userSpaceOnUse">
<stop stop-color="#B620E0"/>
<stop offset="1" stop-color="#0047FF"/>
</linearGradient>
<linearGradient id="paint75_linear_106_25674" x1="546.043" y1="135.459" x2="387.525" y2="491.496" gradientUnits="userSpaceOnUse">
<stop stop-color="#B620E0"/>
<stop offset="1" stop-color="#0047FF"/>
</linearGradient>
<linearGradient id="paint76_linear_106_25674" x1="543.462" y1="134.438" x2="391.849" y2="491.615" gradientUnits="userSpaceOnUse">
<stop stop-color="#B620E0"/>
<stop offset="1" stop-color="#0047FF"/>
</linearGradient>
<linearGradient id="paint77_linear_106_25674" x1="540.844" y1="133.491" x2="396.127" y2="491.676" gradientUnits="userSpaceOnUse">
<stop stop-color="#B620E0"/>
<stop offset="1" stop-color="#0047FF"/>
</linearGradient>
<linearGradient id="paint78_linear_106_25674" x1="538.189" y1="132.618" x2="400.358" y2="491.68" gradientUnits="userSpaceOnUse">
<stop stop-color="#B620E0"/>
<stop offset="1" stop-color="#0047FF"/>
</linearGradient>
<linearGradient id="paint79_linear_106_25674" x1="535.5" y1="131.821" x2="404.54" y2="491.629" gradientUnits="userSpaceOnUse">
<stop stop-color="#B620E0"/>
<stop offset="1" stop-color="#0047FF"/>
</linearGradient>
<linearGradient id="paint80_linear_106_25674" x1="532.777" y1="131.1" x2="408.673" y2="491.525" gradientUnits="userSpaceOnUse">
<stop stop-color="#B620E0"/>
<stop offset="1" stop-color="#0047FF"/>
</linearGradient>
<linearGradient id="paint81_linear_106_25674" x1="530.022" y1="130.456" x2="412.755" y2="491.367" gradientUnits="userSpaceOnUse">
<stop stop-color="#B620E0"/>
<stop offset="1" stop-color="#0047FF"/>
</linearGradient>
<linearGradient id="paint82_linear_106_25674" x1="527.238" y1="129.889" x2="416.786" y2="491.159" gradientUnits="userSpaceOnUse">
<stop stop-color="#B620E0"/>
<stop offset="1" stop-color="#0047FF"/>
</linearGradient>
<linearGradient id="paint83_linear_106_25674" x1="524.425" y1="129.4" x2="420.766" y2="490.902" gradientUnits="userSpaceOnUse">
<stop stop-color="#B620E0"/>
<stop offset="1" stop-color="#0047FF"/>
</linearGradient>
<linearGradient id="paint84_linear_106_25674" x1="521.585" y1="128.99" x2="424.693" y2="490.596" gradientUnits="userSpaceOnUse">
<stop stop-color="#B620E0"/>
<stop offset="1" stop-color="#0047FF"/>
</linearGradient>
<linearGradient id="paint85_linear_106_25674" x1="518.72" y1="128.659" x2="428.567" y2="490.244" gradientUnits="userSpaceOnUse">
<stop stop-color="#B620E0"/>
<stop offset="1" stop-color="#0047FF"/>
</linearGradient>
<linearGradient id="paint86_linear_106_25674" x1="515.831" y1="128.407" x2="432.386" y2="489.847" gradientUnits="userSpaceOnUse">
<stop stop-color="#B620E0"/>
<stop offset="1" stop-color="#0047FF"/>
</linearGradient>
<linearGradient id="paint87_linear_106_25674" x1="512.921" y1="128.236" x2="436.151" y2="489.406" gradientUnits="userSpaceOnUse">
<stop stop-color="#B620E0"/>
<stop offset="1" stop-color="#0047FF"/>
</linearGradient>
<linearGradient id="paint88_linear_106_25674" x1="509.99" y1="128.145" x2="439.861" y2="488.923" gradientUnits="userSpaceOnUse">
<stop stop-color="#B620E0"/>
<stop offset="1" stop-color="#0047FF"/>
</linearGradient>
<linearGradient id="paint89_linear_106_25674" x1="507.04" y1="128.134" x2="443.515" y2="488.4" gradientUnits="userSpaceOnUse">
<stop stop-color="#B620E0"/>
<stop offset="1" stop-color="#0047FF"/>
</linearGradient>
<linearGradient id="paint90_linear_106_25674" x1="504.074" y1="128.205" x2="447.113" y2="487.839" gradientUnits="userSpaceOnUse">
<stop stop-color="#B620E0"/>
<stop offset="1" stop-color="#0047FF"/>
</linearGradient>
<linearGradient id="paint91_linear_106_25674" x1="501.092" y1="128.358" x2="450.654" y2="487.239" gradientUnits="userSpaceOnUse">
<stop stop-color="#B620E0"/>
<stop offset="1" stop-color="#0047FF"/>
</linearGradient>
<linearGradient id="paint92_linear_106_25674" x1="498.096" y1="128.592" x2="454.138" y2="486.604" gradientUnits="userSpaceOnUse">
<stop stop-color="#B620E0"/>
<stop offset="1" stop-color="#0047FF"/>
</linearGradient>
<linearGradient id="paint93_linear_106_25674" x1="495.089" y1="128.909" x2="457.564" y2="485.935" gradientUnits="userSpaceOnUse">
<stop stop-color="#B620E0"/>
<stop offset="1" stop-color="#0047FF"/>
</linearGradient>
<linearGradient id="paint94_linear_106_25674" x1="492.071" y1="129.307" x2="460.932" y2="485.233" gradientUnits="userSpaceOnUse">
<stop stop-color="#B620E0"/>
<stop offset="1" stop-color="#0047FF"/>
</linearGradient>
<linearGradient id="paint95_linear_106_25674" x1="489.045" y1="129.788" x2="464.242" y2="484.5" gradientUnits="userSpaceOnUse">
<stop stop-color="#B620E0"/>
<stop offset="1" stop-color="#0047FF"/>
</linearGradient>
<linearGradient id="paint96_linear_106_25674" x1="486.013" y1="130.352" x2="467.493" y2="483.738" gradientUnits="userSpaceOnUse">
<stop stop-color="#B620E0"/>
<stop offset="1" stop-color="#0047FF"/>
</linearGradient>
<linearGradient id="paint97_linear_106_25674" x1="482.975" y1="130.999" x2="470.684" y2="482.947" gradientUnits="userSpaceOnUse">
<stop stop-color="#B620E0"/>
<stop offset="1" stop-color="#0047FF"/>
</linearGradient>
<linearGradient id="paint98_linear_106_25674" x1="479.933" y1="131.728" x2="473.817" y2="482.13" gradientUnits="userSpaceOnUse">
<stop stop-color="#B620E0"/>
<stop offset="1" stop-color="#0047FF"/>
</linearGradient>
<linearGradient id="paint99_linear_106_25674" x1="476.89" y1="132.541" x2="476.89" y2="481.288" gradientUnits="userSpaceOnUse">
<stop stop-color="#B620E0"/>
<stop offset="1" stop-color="#0047FF"/>
</linearGradient>
</defs>
</svg>
